<svg aria-hidden="true" style="position: absolute; width: 0; height: 0; overflow: hidden;" version="1.1" xmlns="http://www.w3.org/2000/svg" xmlns:xlink="http://www.w3.org/1999/xlink">
<defs>

<!-- Поиск -->
<symbol id="search" viewBox="0 0 32 32">
<path d="M29.156 29.961l-0.709 0.709c-0.785 0.784-2.055 0.784-2.838 0l-5.676-5.674c-0.656-0.658-0.729-1.644-0.281-2.412l-3.104-3.102c-1.669 1.238-3.728 1.979-5.965 1.979-5.54 0-10.031-4.491-10.031-10.031s4.491-10.032 10.031-10.032c5.541 0 10.031 4.491 10.031 10.032 0 2.579-0.98 4.923-2.58 6.7l3.035 3.035c0.768-0.447 1.754-0.375 2.41 0.283l5.676 5.674c0.784 0.785 0.784 2.056 0.001 2.839zM18.088 11.389c0-4.155-3.369-7.523-7.524-7.523s-7.524 3.367-7.524 7.523 3.368 7.523 7.523 7.523 7.525-3.368 7.525-7.523z"></path>
</symbol>

<!-- Телеграмм -->
<!-- <symbol id="telega" viewBox="-10 0 60 30">
<path fill="#fff" stroke="transparent"
d="M32 0 0 18l10.227 3.787L26 7 14.003 23.187l.009.003-.012-.003V32l5.735-6.691L27.002 28l4.999-28z"/>
</symbol> -->
<symbol id="telega" viewBox="0 0 32 32">
<path fill="#fff" d="M23.384 8.643c-0.114 0.029-0.974 0.331-1.913 0.674-0.938 0.349-4.297 1.589-7.471 2.754-3.174 1.171-6.174 2.274-6.676 2.457-1.165 0.434-1.44 0.571-1.709 0.851-0.454 0.48-0.311 1.080 0.347 1.394 0.263 0.126 4.584 1.411 4.746 1.411 0.072 0 1.948-1.091 4.166-2.429 2.223-1.337 4.052-2.429 4.070-2.429s-0.114 0.12-0.287 0.269c-2.684 2.297-5.869 5.086-5.911 5.183-0.042 0.091-0.365 4.074-0.359 4.417 0 0.040 0.054 0.126 0.12 0.189 0.149 0.143 0.598 0.154 0.914 0.011 0.12-0.051 0.705-0.543 1.297-1.086l1.076-0.989 2.026 1.434c1.118 0.789 2.158 1.486 2.319 1.554 0.347 0.149 0.867 0.16 1.13 0.029 0.257-0.126 0.526-0.434 0.645-0.731 0.084-0.223 0.293-1.126 1.022-4.423 0.681-3.091 1.333-6.023 1.626-7.314 0.394-1.703 0.436-2.229 0.215-2.629-0.066-0.126-0.173-0.269-0.233-0.32-0.305-0.257-0.783-0.371-1.16-0.28zM24.023 9.62c0.042 0.074 0.078 0.206 0.078 0.286s-0.257 1.303-0.568 2.714c-0.317 1.411-0.759 3.4-0.986 4.423s-0.616 2.783-0.867 3.914c-0.49 2.234-0.538 2.406-0.675 2.554-0.108 0.12-0.4 0.131-0.61 0.029-0.084-0.040-1.124-0.76-2.313-1.6-1.644-1.16-2.205-1.526-2.337-1.526-0.137 0-0.371 0.189-1.297 1.029-0.616 0.566-1.136 1.023-1.148 1.006-0.012-0.011 0.030-0.743 0.102-1.629 0.066-0.886 0.12-1.634 0.12-1.657 0-0.029 1.757-1.566 3.903-3.423 2.152-1.851 3.981-3.451 4.064-3.554 0.406-0.463-0.024-1.006-0.687-0.863-0.12 0.029-0.251 0.069-0.293 0.097-0.048 0.023-1.428 0.857-3.072 1.846s-3.849 2.314-4.901 2.943l-1.913 1.154-2.116-0.64c-1.165-0.349-2.164-0.663-2.211-0.691-0.084-0.051-0.084-0.069-0.006-0.16 0.12-0.143 0.137-0.149 3.825-1.503 1.793-0.663 5.505-2.029 8.248-3.040 2.743-1.017 5.074-1.863 5.17-1.886 0.233-0.051 0.4 0.011 0.49 0.177z"></path>
</symbol>
<!-- Телеграмм - hovered -->
<symbol id="telega-hovered" viewBox="0 0 32 32">
<path fill="#00c5eb" d="M-0.8-0.8h33.6v33.6h-33.6v-33.6z"></path>
<path d="M31.287 16.009c0 8.356-6.813 15.13-15.217 15.13s-15.217-6.774-15.217-15.13c0-8.356 6.813-15.13 15.217-15.13s15.217 6.774 15.217 15.13z"></path>
<path fill="#00c5eb" d="M23.384 8.643c-0.114 0.029-0.974 0.331-1.913 0.674-0.938 0.349-4.297 1.589-7.471 2.754-3.174 1.171-6.174 2.274-6.676 2.457-1.165 0.434-1.44 0.571-1.709 0.851-0.454 0.48-0.311 1.080 0.347 1.394 0.263 0.126 4.584 1.411 4.746 1.411 0.072 0 1.948-1.091 4.166-2.429 2.223-1.337 4.052-2.429 4.070-2.429s-0.114 0.12-0.287 0.269c-2.684 2.297-5.869 5.086-5.911 5.183-0.042 0.091-0.365 4.074-0.359 4.417 0 0.040 0.054 0.126 0.12 0.189 0.149 0.143 0.598 0.154 0.914 0.011 0.12-0.051 0.705-0.543 1.297-1.086l1.076-0.989 2.026 1.434c1.118 0.789 2.158 1.486 2.319 1.554 0.347 0.149 0.867 0.16 1.13 0.029 0.257-0.126 0.526-0.434 0.645-0.731 0.084-0.223 0.293-1.126 1.022-4.423 0.681-3.091 1.333-6.023 1.626-7.314 0.394-1.703 0.436-2.229 0.215-2.629-0.066-0.126-0.173-0.269-0.233-0.32-0.305-0.257-0.783-0.371-1.16-0.28zM24.023 9.62c0.042 0.074 0.078 0.206 0.078 0.286s-0.257 1.303-0.568 2.714c-0.317 1.411-0.759 3.4-0.986 4.423s-0.616 2.783-0.867 3.914c-0.49 2.234-0.538 2.406-0.675 2.554-0.108 0.12-0.4 0.131-0.61 0.029-0.084-0.040-1.124-0.76-2.313-1.6-1.644-1.16-2.205-1.526-2.337-1.526-0.137 0-0.371 0.189-1.297 1.029-0.616 0.566-1.136 1.023-1.148 1.006-0.012-0.011 0.030-0.743 0.102-1.629 0.066-0.886 0.12-1.634 0.12-1.657 0-0.029 1.757-1.566 3.903-3.423 2.152-1.851 3.981-3.451 4.064-3.554 0.406-0.463-0.024-1.006-0.687-0.863-0.12 0.029-0.251 0.069-0.293 0.097-0.048 0.023-1.428 0.857-3.072 1.846s-3.849 2.314-4.901 2.943l-1.913 1.154-2.116-0.64c-1.165-0.349-2.164-0.663-2.211-0.691-0.084-0.051-0.084-0.069-0.006-0.16 0.12-0.143 0.137-0.149 3.825-1.503 1.793-0.663 5.505-2.029 8.248-3.040 2.743-1.017 5.074-1.863 5.17-1.886 0.233-0.051 0.4 0.011 0.49 0.177z"></path>
</symbol>

<!--  Insta icon normal    -->
<symbol id="instagram" viewBox="-14 -14 60 60">
<path fill="#ffffff" stroke="transparent"  
d="M31.968 9.408c-.074-1.701-.349-2.869-.742-3.882a7.839 7.839 0 0 0-1.85-2.837l-.001-.001A7.906 7.906 0 0 0 26.597.861l-.054-.018C25.524.449 24.362.176 22.661.101 20.949.019 20.405 0 16.059 0c-4.344 0-4.888.019-6.595.094-1.699.074-2.869.349-3.88.742a7.847 7.847 0 0 0-2.839 1.85l-.001.001A7.9 7.9 0 0 0 .919 5.465l-.018.054C.506 6.538.232 7.7.157 9.401c-.082 1.712-.101 2.256-.101 6.602 0 4.344.019 4.888.094 6.595.075 1.701.35 2.869.744 3.882a7.915 7.915 0 0 0 1.849 2.837l.001.001c.8.813 1.77 1.443 2.832 1.843 1.019.395 2.182.67 3.882.744 1.707.075 2.251.094 6.595.094 4.346 0 4.89-.019 6.595-.094 1.701-.074 2.869-.349 3.882-.742a8.237 8.237 0 0 0 4.664-4.628l.019-.055c.394-1.019.669-2.182.744-3.882.075-1.707.093-2.251.093-6.595s-.006-4.888-.08-6.595zm-2.88 13.066c-.07 1.563-.333 2.406-.55 2.97a5.341 5.341 0 0 1-3.004 3.024l-.036.012c-.56.219-1.411.482-2.968.55-1.688.075-2.194.094-6.464.094-4.269 0-4.782-.019-6.464-.094-1.563-.069-2.406-.331-2.97-.55a4.953 4.953 0 0 1-1.836-1.192l-.001-.001a4.978 4.978 0 0 1-1.184-1.803L3.6 25.45c-.218-.563-.48-1.413-.549-2.97-.075-1.688-.094-2.195-.094-6.464 0-4.27.019-4.784.094-6.464.069-1.563.331-2.406.549-2.97a4.897 4.897 0 0 1 1.198-1.837l.002-.002a4.972 4.972 0 0 1 1.806-1.182l.034-.011c.56-.219 1.411-.48 2.968-.55 1.688-.074 2.195-.093 6.464-.093 4.275 0 4.782.019 6.464.093 1.563.069 2.406.331 2.97.55a4.91 4.91 0 0 1 1.837 1.194c.531.52.938 1.144 1.195 1.84.218.56.48 1.411.549 2.968.075 1.688.094 2.194.094 6.464 0 4.269-.019 4.768-.094 6.458z"/>
<path fill="#ffffff" stroke="transparent"
d="M16.059 7.782a8.223 8.223 0 0 0-8.219 8.221v.002a8.222 8.222 0 1 0 16.444 0 8.222 8.222 0 0 0-8.222-8.222h-.002zm0 13.552a5.333 5.333 0 0 1 .001-10.666h.001a5.334 5.334 0 1 1 0 10.668zM26.525 7.458a1.92 1.92 0 0 1-3.84 0 1.92 1.92 0 0 1 3.84 0z"/>
</symbol>
<!--  Insta icon hovered    -->
<symbol id="instagram-hovered" viewBox="-1 -1 34 34">
<path d="M16.005 0c-8.842 0-16.005 7.172-16.005 16.005 0 8.842 7.172 16.005 16.005 16.005 8.842 0 16.005-7.172 16.005-16.005 0-8.842-7.172-16.005-16.005-16.005zM12.26 7.22h7.489c2.813 0 5.108 2.275 5.108 5.040v7.47c0 2.775-2.295 5.040-5.108 5.040h-7.489c-2.813 0-5.108-2.266-5.108-5.041v-7.47c0-2.775 2.304-5.040 5.108-5.040zM15.957 11.262c-2.736 0-4.954 2.218-4.954 4.954s2.218 4.954 4.954 4.954c2.736 0 4.954-2.218 4.954-4.954s-2.218-4.954-4.954-4.954zM15.957 12.932c-1.805 0-3.274 1.469-3.274 3.274s1.459 3.274 3.274 3.274c1.805 0 3.274-1.469 3.274-3.274s-1.469-3.274-3.274-3.274zM20.748 10.571c-0.451 0-0.806 0.365-0.806 0.806 0 0.451 0.365 0.806 0.806 0.806 0.451 0 0.806-0.365 0.806-0.806 0-0.451-0.365-0.806-0.806-0.806zM12.875 8.65h6.26c2.352 0 4.272 1.911 4.272 4.253v6.298c0 2.343-1.92 4.253-4.272 4.253h-6.26c-2.352 0-4.272-1.911-4.272-4.253v-6.298c0-2.343 1.92-4.253 4.272-4.253z"></path>
</symbol>

<!--  Twitter icon normal    -->
<symbol id="icon-twitter" viewBox="0 0 40 40">
  <path d="M20 1C9.50646 1 1 9.50646 1 20C1 30.4935 9.50646 39 20 39C30.4935 39 39 30.4935 39 20C39 9.50646 30.4935 1 20 1ZM27.7286 16.5642C27.7366 16.7265 27.7385 16.8888 27.7385 17.0471C27.7385 21.995 23.9761 27.697 17.0926 27.697C15.0586 27.7004 13.0669 27.1162 11.357 26.0147C11.6479 26.0503 11.9468 26.0642 12.2496 26.0642C14.0031 26.0642 15.6161 25.4684 16.8967 24.463C16.1163 24.4477 15.3602 24.1893 14.7337 23.7238C14.1071 23.2584 13.6414 22.6091 13.4015 21.8664C13.9619 21.9729 14.5392 21.9506 15.0897 21.801C14.2427 21.6298 13.481 21.1708 12.9338 20.502C12.3866 19.8333 12.0875 18.9958 12.0873 18.1317V18.0861C12.592 18.3652 13.1699 18.5354 13.7834 18.5552C12.9894 18.0266 12.4273 17.2147 12.2121 16.2854C11.9969 15.3561 12.1448 14.3797 12.6256 13.5558C13.5656 14.7117 14.7379 15.6572 16.0665 16.3312C17.3952 17.0053 18.8505 17.3928 20.3384 17.4686C20.1493 16.6657 20.2307 15.8228 20.57 15.0709C20.9093 14.319 21.4876 13.7003 22.2148 13.3109C22.9421 12.9216 23.7776 12.7834 24.5915 12.9179C25.4053 13.0524 26.152 13.452 26.7153 14.0546C27.5528 13.8889 28.356 13.5817 29.0903 13.1461C28.8112 14.0133 28.2268 14.7496 27.4456 15.2183C28.1875 15.129 28.9119 14.9295 29.595 14.6266C29.0933 15.3784 28.4612 16.0346 27.7286 16.5642Z" 
  fill="transparent" stroke="transparent" />
  <path d="M27.4357 16.1589L27.216 16.3177L27.2292 16.5885C27.2365 16.7392 27.2385 16.8924 27.2385 17.0471C27.2385 21.7802 23.6424 27.197 17.0926 27.197L17.0917 27.197C15.8097 27.1991 14.5453 26.9562 13.3647 26.4877C14.8006 26.289 16.116 25.7116 17.2054 24.8563L18.3079 23.9906L16.9064 23.9631C16.2301 23.9498 15.5748 23.7259 15.0318 23.3225C14.7028 23.078 14.425 22.7751 14.2108 22.4312C14.5511 22.4226 14.8902 22.3733 15.2207 22.2835L15.1887 21.3109C14.4549 21.1625 13.7949 20.7649 13.3207 20.1854C13.006 19.8007 12.786 19.3517 12.6736 18.8742C13.0213 18.9798 13.3881 19.0427 13.7673 19.0549L15.5214 19.1115L14.0605 18.139C13.3726 17.681 12.8856 16.9776 12.6991 16.1725C12.5679 15.606 12.5925 15.0193 12.7637 14.4727C13.6466 15.4118 14.6872 16.1921 15.8403 16.7771C17.2314 17.4828 18.7551 17.8885 20.3129 17.968L20.9777 18.0019L20.8251 17.354C20.6612 16.6583 20.7317 15.928 21.0257 15.2766C21.3197 14.6251 21.8207 14.0891 22.4508 13.7517C23.0809 13.4144 23.8048 13.2947 24.5099 13.4112C25.215 13.5277 25.8619 13.8739 26.35 14.396L26.5398 14.599L26.8123 14.5451C27.164 14.4755 27.51 14.3825 27.8481 14.267C27.6531 14.4675 27.4317 14.6435 27.1883 14.7896L27.5054 15.7147C27.7022 15.691 27.8979 15.66 28.092 15.6219C27.8845 15.8135 27.6654 15.9929 27.4357 16.1589Z" 
  fill="#ffffff" stroke="#ffffff" />
</symbol>
<!--  Twitter icon hovered    -->
<symbol id="icon-twitter-hovered" viewBox="0 0 40 40">
  <path d="M20 1C9.50646 1 1 9.50646 1 20C1 30.4935 9.50646 39 20 39C30.4935 39 39 30.4935 39 20C39 9.50646 30.4935 1 20 1ZM27.7286 16.5642C27.7366 16.7265 27.7385 16.8888 27.7385 17.0471C27.7385 21.995 23.9761 27.697 17.0926 27.697C15.0586 27.7004 13.0669 27.1162 11.357 26.0147C11.6479 26.0503 11.9468 26.0642 12.2496 26.0642C14.0031 26.0642 15.6161 25.4684 16.8967 24.463C16.1163 24.4477 15.3602 24.1893 14.7337 23.7238C14.1071 23.2584 13.6414 22.6091 13.4015 21.8664C13.9619 21.9729 14.5392 21.9506 15.0897 21.801C14.2427 21.6298 13.481 21.1708 12.9338 20.502C12.3866 19.8333 12.0875 18.9958 12.0873 18.1317V18.0861C12.592 18.3652 13.1699 18.5354 13.7834 18.5552C12.9894 18.0266 12.4273 17.2147 12.2121 16.2854C11.9969 15.3561 12.1448 14.3797 12.6256 13.5558C13.5656 14.7117 14.7379 15.6572 16.0665 16.3312C17.3952 17.0053 18.8505 17.3928 20.3384 17.4686C20.1493 16.6657 20.2307 15.8228 20.57 15.0709C20.9093 14.319 21.4876 13.7003 22.2148 13.3109C22.9421 12.9216 23.7776 12.7834 24.5915 12.9179C25.4053 13.0524 26.152 13.452 26.7153 14.0546C27.5528 13.8889 28.356 13.5817 29.0903 13.1461C28.8112 14.0133 28.2268 14.7496 27.4456 15.2183C28.1875 15.129 28.9119 14.9295 29.595 14.6266C29.0933 15.3784 28.4612 16.0346 27.7286 16.5642Z" 
  stroke="transparent" fill="#06071B" />
  <path d="M27.4357 16.1589L27.216 16.3177L27.2292 16.5885C27.2365 16.7392 27.2385 16.8924 27.2385 17.0471C27.2385 21.7802 23.6424 27.197 17.0926 27.197L17.0917 27.197C15.8097 27.1991 14.5453 26.9562 13.3647 26.4877C14.8006 26.289 16.116 25.7116 17.2054 24.8563L18.3079 23.9906L16.9064 23.9631C16.2301 23.9498 15.5748 23.7259 15.0318 23.3225C14.7028 23.078 14.425 22.7751 14.2108 22.4312C14.5511 22.4226 14.8902 22.3733 15.2207 22.2835L15.1887 21.3109C14.4549 21.1625 13.7949 20.7649 13.3207 20.1854C13.006 19.8007 12.786 19.3517 12.6736 18.8742C13.0213 18.9798 13.3881 19.0427 13.7673 19.0549L15.5214 19.1115L14.0605 18.139C13.3726 17.681 12.8856 16.9776 12.6991 16.1725C12.5679 15.606 12.5925 15.0193 12.7637 14.4727C13.6466 15.4118 14.6872 16.1921 15.8403 16.7771C17.2314 17.4828 18.7551 17.8885 20.3129 17.968L20.9777 18.0019L20.8251 17.354C20.6612 16.6583 20.7317 15.928 21.0257 15.2766C21.3197 14.6251 21.8207 14.0891 22.4508 13.7517C23.0809 13.4144 23.8048 13.2947 24.5099 13.4112C25.215 13.5277 25.8619 13.8739 26.35 14.396L26.5398 14.599L26.8123 14.5451C27.164 14.4755 27.51 14.3825 27.8481 14.267C27.6531 14.4675 27.4317 14.6435 27.1883 14.7896L27.5054 15.7147C27.7022 15.691 27.8979 15.66 28.092 15.6219C27.8845 15.8135 27.6654 15.9929 27.4357 16.1589Z" 
  stroke="transparent" fill="#06071B" />
</symbol>

<!--  Linkedin icon normal    -->
<symbol id="icon-linkedin" viewBox="0 0 40 40">
  <path d="M15.349 28.3751H15.849V27.8751V15.4934V14.9934H15.349H11.5015H11.0015V15.4934V27.8751V28.3751H11.5015H15.349ZM15.9756 12.0477H15.9757L15.9755 12.0368C15.9611 11.3785 15.7217 10.7697 15.2715 10.324C14.8194 9.87643 14.1877 9.62594 13.4509 9.62594C12.7157 9.62594 12.0741 9.87523 11.6134 10.3194C11.1526 10.7636 10.9005 11.3766 10.9005 12.0477C10.9005 13.3886 11.9101 14.4734 13.4015 14.4734C14.1611 14.4734 14.81 14.2178 15.2715 13.7679C15.7319 13.3189 15.9756 12.7053 15.9756 12.0477ZM29.401 28.3751H29.901V27.8751V20.5542C29.901 18.6484 29.4044 17.1796 28.5074 16.1819C27.6053 15.1785 26.3527 14.7124 24.9717 14.7124C23.3647 14.7124 22.2038 15.3621 21.456 16.0657L21.392 15.4405L21.346 14.9915H20.8946H17.5518H17.0281L17.0523 15.5146C17.1036 16.6233 17.1527 17.9071 17.1527 19.4419V27.8731V28.3731H17.6527H21.5022H22.0022V27.8731V20.7343C22.0022 20.3818 22.0313 20.1139 22.0935 19.9619L22.0936 19.9619L22.0959 19.9561C22.3308 19.3613 22.82 18.8316 23.6041 18.8316C24.1475 18.8316 24.4717 19.0311 24.6844 19.3506C24.9192 19.7032 25.0535 20.2586 25.0535 21.0133V27.8751V28.3751H25.5535H29.401ZM1.5 20C1.5 9.7826 9.7826 1.5 20 1.5C30.2174 1.5 38.5 9.7826 38.5 20C38.5 30.2174 30.2174 38.5 20 38.5C9.7826 38.5 1.5 30.2174 1.5 20Z" 
  fill="transparent" stroke="transparent" />
  <path d="M28.9009 20.5542V27.3751H26.0534V21.0134C26.0534 20.1709 25.9087 19.3854 25.5166 18.7964C25.1024 18.1743 24.4518 17.8316 23.6039 17.8316C22.2638 17.8316 21.4906 18.7683 21.1667 19.586C21.0243 19.9362 21.0021 20.3793 21.0021 20.7343V27.3732H18.1526V19.4419C18.1526 18.1224 18.1168 16.9866 18.0744 15.9915H20.443L20.5732 17.2623L20.6192 17.7114H21.0706H21.1478H21.4243L21.5713 17.4771C22.0107 16.7768 23.1086 15.7124 24.9715 15.7124C26.1218 15.7124 27.0839 16.0944 27.7637 16.8505C28.4485 17.6123 28.9009 18.8144 28.9009 20.5542ZM14.8488 27.3751H12.0013V15.9935H14.8488V27.3751ZM13.4013 13.4735C12.4623 13.4735 11.9004 12.8364 11.9004 12.0477C11.9004 11.6323 12.0531 11.2844 12.3073 11.0394C12.5615 10.7943 12.9451 10.626 13.4508 10.626C13.9549 10.626 14.3238 10.7931 14.5678 11.0347C14.8128 11.2772 14.9649 11.6274 14.9755 12.0532C14.9742 12.458 14.8262 12.8053 14.5733 13.0519C14.3202 13.2986 13.9321 13.4735 13.4013 13.4735Z" 
  fill="#ffffff" stroke="#ffffff" />
</symbol>
<!--  Linkedin icon hovered    -->
<symbol id="icon-linkedin-hovered" viewBox="0 0 40 40">
  <path d="M15.349 28.3751H15.849V27.8751V15.4934V14.9934H15.349H11.5015H11.0015V15.4934V27.8751V28.3751H11.5015H15.349ZM15.9756 12.0477H15.9757L15.9755 12.0368C15.9611 11.3785 15.7217 10.7697 15.2715 10.324C14.8194 9.87643 14.1877 9.62594 13.4509 9.62594C12.7157 9.62594 12.0741 9.87523 11.6134 10.3194C11.1526 10.7636 10.9005 11.3766 10.9005 12.0477C10.9005 13.3886 11.9101 14.4734 13.4015 14.4734C14.1611 14.4734 14.81 14.2178 15.2715 13.7679C15.7319 13.3189 15.9756 12.7053 15.9756 12.0477ZM29.401 28.3751H29.901V27.8751V20.5542C29.901 18.6484 29.4044 17.1796 28.5074 16.1819C27.6053 15.1785 26.3527 14.7124 24.9717 14.7124C23.3647 14.7124 22.2038 15.3621 21.456 16.0657L21.392 15.4405L21.346 14.9915H20.8946H17.5518H17.0281L17.0523 15.5146C17.1036 16.6233 17.1527 17.9071 17.1527 19.4419V27.8731V28.3731H17.6527H21.5022H22.0022V27.8731V20.7343C22.0022 20.3818 22.0313 20.1139 22.0935 19.9619L22.0936 19.9619L22.0959 19.9561C22.3308 19.3613 22.82 18.8316 23.6041 18.8316C24.1475 18.8316 24.4717 19.0311 24.6844 19.3506C24.9192 19.7032 25.0535 20.2586 25.0535 21.0133V27.8751V28.3751H25.5535H29.401ZM1.5 20C1.5 9.7826 9.7826 1.5 20 1.5C30.2174 1.5 38.5 9.7826 38.5 20C38.5 30.2174 30.2174 38.5 20 38.5C9.7826 38.5 1.5 30.2174 1.5 20Z" 
  stroke="transparent" fill="#06071B" />
  <path d="M28.9009 20.5542V27.3751H26.0534V21.0134C26.0534 20.1709 25.9087 19.3854 25.5166 18.7964C25.1024 18.1743 24.4518 17.8316 23.6039 17.8316C22.2638 17.8316 21.4906 18.7683 21.1667 19.586C21.0243 19.9362 21.0021 20.3793 21.0021 20.7343V27.3732H18.1526V19.4419C18.1526 18.1224 18.1168 16.9866 18.0744 15.9915H20.443L20.5732 17.2623L20.6192 17.7114H21.0706H21.1478H21.4243L21.5713 17.4771C22.0107 16.7768 23.1086 15.7124 24.9715 15.7124C26.1218 15.7124 27.0839 16.0944 27.7637 16.8505C28.4485 17.6123 28.9009 18.8144 28.9009 20.5542ZM14.8488 27.3751H12.0013V15.9935H14.8488V27.3751ZM13.4013 13.4735C12.4623 13.4735 11.9004 12.8364 11.9004 12.0477C11.9004 11.6323 12.0531 11.2844 12.3073 11.0394C12.5615 10.7943 12.9451 10.626 13.4508 10.626C13.9549 10.626 14.3238 10.7931 14.5678 11.0347C14.8128 11.2772 14.9649 11.6274 14.9755 12.0532C14.9742 12.458 14.8262 12.8053 14.5733 13.0519C14.3202 13.2986 13.9321 13.4735 13.4013 13.4735Z" 
  stroke="transparent" fill="#06071B" />
</symbol>

<!--  Facebook icon normal    -->
<symbol id="icon-facebook" viewBox="0 0 40 40">
  <circle cx="20" cy="20" r="18" fill="transparent" />
  <path d="M24.5007 14.1298H21.6448C21.3063 14.1298 20.9303 14.5751 20.9303 15.1669V17.2292H24.5027L23.9624 20.1702H20.9303V28.9993H17.5598V20.1702H14.502V17.2292H17.5598V15.4994C17.5598 13.0175 19.2816 11.0007 21.6448 11.0007H24.5007V14.1298Z" fill="white" />
</symbol>
<!--  Facebook icon hovered    -->
<symbol id="icon-facebook-hovered" viewBox="0 0 40 40">
  <path d="M24.5006 14.6298H25.0006V14.1298V11.0007V10.5007H24.5006H21.6447C18.9529 10.5007 17.0597 12.797 17.0597 15.4994V16.7292H14.5019H14.0019V17.2292V20.1702V20.6702H14.5019H17.0597V28.9993V29.4993H17.5597H20.9302H21.4302V28.9993V20.6702H23.9623H24.3788L24.4541 20.2606L24.9944 17.3195L25.1028 16.7292H24.5026H21.4302V15.1669C21.4302 14.9752 21.4916 14.8202 21.5633 14.7227C21.6145 14.6531 21.6518 14.6342 21.6612 14.6298H24.5006ZM1.5 20C1.5 9.7826 9.7826 1.5 20 1.5C30.2174 1.5 38.5 9.7826 38.5 20C38.5 30.2174 30.2174 38.5 20 38.5C9.7826 38.5 1.5 30.2174 1.5 20Z" fill="#06071b" />
  <path d="M24.5007 14.1298H21.6448C21.3063 14.1298 20.9303 14.5751 20.9303 15.1669V17.2292H24.5027L23.9624 20.1702H20.9303V28.9993H17.5598V20.1702H14.502V17.2292H17.5598V15.4994C17.5598 13.0175 19.2816 11.0007 21.6448 11.0007H24.5007V14.1298Z" stroke="transparent" stroke-width="2" />
</symbol>

<!-- Иконки -->
<symbol id="icon-profile" viewBox="0 0 32 32">
<path fill="#fff" style="fill: var(--color1, #fff)" d="M26.749 24.93c1.436-1.728 2.435-3.776 2.912-5.972s0.418-4.474-0.171-6.642c-0.59-2.168-1.693-4.162-3.216-5.814s-3.422-2.912-5.535-3.675c-2.113-0.763-4.379-1.005-6.606-0.707s-4.349 1.129-6.187 2.421-3.338 3.008-4.373 5.002c-1.035 1.994-1.574 4.209-1.572 6.455 0.001 3.266 1.152 6.428 3.251 8.93l-0.020 0.017c0.070 0.084 0.15 0.156 0.222 0.239 0.090 0.103 0.187 0.2 0.28 0.3 0.28 0.304 0.568 0.596 0.87 0.87 0.092 0.084 0.187 0.162 0.28 0.242 0.32 0.276 0.649 0.538 0.99 0.782 0.044 0.030 0.084 0.069 0.128 0.1v-0.012c2.342 1.648 5.136 2.533 8 2.533s5.658-0.885 8-2.533v0.012c0.044-0.031 0.083-0.070 0.128-0.1 0.34-0.245 0.67-0.506 0.99-0.782 0.093-0.080 0.188-0.159 0.28-0.242 0.302-0.275 0.59-0.566 0.87-0.87 0.093-0.1 0.189-0.197 0.28-0.3 0.071-0.083 0.152-0.155 0.222-0.24l-0.022-0.016zM16 8c0.89 0 1.76 0.264 2.5 0.758s1.317 1.197 1.657 2.020 0.43 1.727 0.256 2.6c-0.174 0.873-0.602 1.675-1.232 2.304s-1.431 1.058-2.304 1.232c-0.873 0.174-1.778 0.084-2.6-0.256s-1.525-0.917-2.020-1.657c-0.495-0.74-0.758-1.61-0.758-2.5 0-1.193 0.474-2.338 1.318-3.182s1.988-1.318 3.182-1.318zM8.007 24.93c0.017-1.313 0.551-2.567 1.485-3.489s2.194-1.44 3.508-1.441h6c1.313 0.001 2.573 0.518 3.508 1.441s1.468 2.176 1.485 3.489c-2.193 1.976-5.041 3.070-7.993 3.070s-5.8-1.094-7.993-3.070z"></path>
</symbol>

<symbol id="icon-cross" viewBox="0 0 32 32">
<path fill="#fff" style="fill: var(--color1, #057198)" d="M17.253 16l7.369-7.369c0.146-0.17 0.222-0.389 0.213-0.613s-0.102-0.436-0.26-0.594-0.37-0.251-0.594-0.26c-0.224-0.009-0.442 0.067-0.613 0.213l-7.369 7.369-7.369-7.378c-0.167-0.167-0.394-0.261-0.631-0.261s-0.464 0.094-0.631 0.261c-0.167 0.167-0.261 0.394-0.261 0.631s0.094 0.464 0.261 0.631l7.378 7.369-7.378 7.369c-0.093 0.080-0.169 0.178-0.222 0.288s-0.083 0.23-0.088 0.353c-0.005 0.122 0.016 0.244 0.061 0.358s0.112 0.218 0.199 0.304c0.087 0.087 0.19 0.154 0.304 0.199s0.236 0.065 0.359 0.061c0.122-0.005 0.243-0.035 0.353-0.088s0.208-0.129 0.288-0.222l7.378-7.369 7.369 7.369c0.17 0.146 0.389 0.222 0.613 0.213s0.436-0.101 0.594-0.26 0.251-0.37 0.26-0.594c0.009-0.224-0.068-0.442-0.213-0.613l-7.369-7.369z"></path>
</symbol>

<symbol id="icon-language" viewBox="0 0 32 32">
<path fill="#fff" style="fill: var(--color1, #fff)" d="M16 29.333c-1.822 0-3.544-0.35-5.167-1.051s-3.039-1.655-4.249-2.867c-1.212-1.211-2.167-2.627-2.867-4.249s-1.051-3.344-1.051-5.167c0-1.844 0.35-3.572 1.051-5.183s1.655-3.023 2.867-4.233c1.211-1.212 2.627-2.168 4.249-2.868s3.344-1.049 5.167-1.049c1.844 0 3.572 0.35 5.183 1.049s3.023 1.656 4.233 2.868c1.212 1.211 2.167 2.622 2.867 4.233s1.051 3.338 1.051 5.183c0 1.822-0.35 3.544-1.051 5.167s-1.655 3.039-2.867 4.249c-1.211 1.212-2.622 2.167-4.233 2.867s-3.338 1.051-5.183 1.051zM16 26.6c0.578-0.8 1.078-1.633 1.5-2.5s0.767-1.789 1.033-2.767h-5.067c0.267 0.978 0.611 1.9 1.033 2.767s0.922 1.7 1.5 2.5zM12.534 26.067c-0.4-0.733-0.75-1.495-1.049-2.284s-0.551-1.605-0.751-2.449h-3.933c0.644 1.111 1.45 2.078 2.416 2.9s2.073 1.433 3.317 1.833zM19.467 26.067c1.244-0.4 2.35-1.011 3.316-1.833s1.773-1.789 2.417-2.9h-3.933c-0.2 0.844-0.45 1.661-0.749 2.449s-0.651 1.551-1.051 2.284zM5.667 18.667h4.533c-0.067-0.444-0.117-0.884-0.151-1.317s-0.049-0.883-0.049-1.349c0-0.467 0.016-0.916 0.049-1.349s0.084-0.873 0.151-1.317h-4.533c-0.111 0.444-0.195 0.884-0.251 1.317s-0.083 0.883-0.083 1.349c0 0.467 0.028 0.916 0.083 1.349s0.14 0.873 0.251 1.317zM12.867 18.667h6.267c0.067-0.444 0.117-0.884 0.151-1.317 0.033-0.433 0.049-0.883 0.049-1.349s-0.016-0.916-0.049-1.349c-0.034-0.434-0.084-0.873-0.151-1.317h-6.267c-0.067 0.444-0.116 0.884-0.149 1.317s-0.051 0.883-0.051 1.349c0 0.467 0.017 0.916 0.051 1.349s0.083 0.873 0.149 1.317zM21.8 18.667h4.533c0.111-0.444 0.195-0.884 0.251-1.317s0.083-0.883 0.083-1.349c0-0.467-0.028-0.916-0.083-1.349s-0.14-0.873-0.251-1.317h-4.533c0.067 0.444 0.116 0.884 0.149 1.317 0.034 0.433 0.051 0.883 0.051 1.349s-0.017 0.916-0.051 1.349c-0.033 0.434-0.083 0.873-0.149 1.317zM21.267 10.667h3.933c-0.644-1.111-1.45-2.078-2.417-2.9s-2.072-1.433-3.316-1.833c0.4 0.733 0.75 1.494 1.051 2.283s0.549 1.606 0.749 2.451zM13.467 10.667h5.067c-0.267-0.978-0.611-1.9-1.033-2.767s-0.922-1.7-1.5-2.5c-0.578 0.8-1.078 1.633-1.5 2.5s-0.767 1.789-1.033 2.767zM6.8 10.667h3.933c0.2-0.844 0.45-1.661 0.751-2.451s0.649-1.549 1.049-2.283c-1.244 0.4-2.35 1.011-3.317 1.833s-1.772 1.789-2.416 2.9z"></path>
</symbol>

<symbol id="burger-menu" viewBox="0 0 52 32">
<path fill="none" stroke="#fff" style="stroke: var(--color1, #fff)" stroke-linejoin="miter" stroke-linecap="round" stroke-miterlimit="4" stroke-width="4" d="M2 2h48M2 16h48M2 30h48"></path>
</symbol>

<symbol id="head-envelope" viewBox="0 0 43 32"><path d="M38.667 0H4C1.795 0 0 1.795 0 4v24c0 2.205 1.795 4 4 4h34.667c2.205 0 4-1.795 4-4V4c0-2.205-1.795-4-4-4zm0 2.667c.181 0 .355.037.512.104L21.334 18.238 3.489 2.771c.151-.065.327-.104.512-.104h34.667zm0 26.666H4A1.333 1.333 0 0 1 2.667 28V5.587l17.792 15.421c.233.203.539.327.875.327s.642-.124.876-.328l-.002.001L40 5.587V28c0 .736-.597 1.333-1.333 1.333z"/></symbol>

<symbol id="head-smartphone" viewBox="0 0 20 32"><path d="M17 0H3C1.346 0 0 1.346 0 3v26c0 1.654 1.346 3 3 3h14c1.654 0 3-1.346 3-3V3c0-1.654-1.346-3-3-3zM3 2h14a1 1 0 0 1 1 1v21H2V3a1 1 0 0 1 1-1zm14 28H3a1 1 0 0 1-1-1v-3h16v3a1 1 0 0 1-1 1z"/><path fill="#6c6c6c" style="fill:var(--color4, #6c6c6c)" d="M4.708 27.478a.889.889 0 0 1 .001 1.319l-.001.001a1.048 1.048 0 0 1-1.417 0l.001.001a.889.889 0 0 1-.001-1.319l.001-.001a1.048 1.048 0 0 1 1.417 0l-.001-.001z"/></symbol>

<symbol id="logoblack" viewBox="0 0 35 32">
<path d="M17.341 4.026c-0.070 0.009-0.321 0.040-0.549 0.066-2.444 0.277-4.888 1.358-6.809 3.011-1.349 1.165-2.391 2.501-3.169 4.083-0.567 1.147-0.892 2.092-1.116 3.253-0.176 0.884-0.224 1.433-0.22 2.527 0 1.077 0.057 1.662 0.242 2.571 0.796 3.855 3.363 7.178 6.91 8.954 4.013 2.004 8.813 1.776 12.607-0.611 2.492-1.569 4.435-4.004 5.371-6.738 0.312-0.919 0.51-1.789 0.624-2.769 0.075-0.629 0.088-2.145 0.022-2.769-0.462-4.422-3.156-8.294-7.143-10.264-1.327-0.655-2.444-1.002-3.956-1.235-0.418-0.066-2.497-0.123-2.813-0.079zM19.938 4.418c2.299 0.286 4.536 1.235 6.347 2.686 3.055 2.453 4.822 6.29 4.69 10.193-0.097 2.914-1.095 5.508-2.98 7.758-3.204 3.824-8.457 5.38-13.266 3.93-1.613-0.492-3.182-1.349-4.488-2.457-0.479-0.409-1.354-1.305-1.714-1.758-1.042-1.314-1.947-3.134-2.356-4.743-0.246-0.98-0.334-1.648-0.356-2.782-0.026-1.209 0.018-1.785 0.207-2.738 0.242-1.209 0.589-2.224 1.116-3.257 1.657-3.262 4.655-5.67 8.158-6.545 0.782-0.193 1.327-0.281 2.33-0.369 0.382-0.035 1.785 0.018 2.312 0.084z"></path>
<path d="M17.231 9.552c-0.923 0.585-1.53 0.963-2.4 1.49-0.58 0.347-0.576-0.022-0.022 3.029l0.484 2.655-0.497 2.637c-0.273 1.451-0.492 2.655-0.484 2.681 0.013 0.022 0.527 0.36 1.152 0.747 0.62 0.382 1.508 0.936 1.965 1.222 0.73 0.457 0.848 0.519 0.945 0.484s1.055-0.62 3.244-1.982c0.374-0.233 0.686-0.444 0.695-0.47 0.013-0.031-0.198-1.213-0.466-2.629-0.264-1.42-0.484-2.629-0.484-2.69s0.207-1.253 0.462-2.646c0.255-1.393 0.462-2.576 0.462-2.629 0-0.070-0.33-0.299-1.644-1.121-1.881-1.178-2.264-1.407-2.356-1.407-0.035 0-0.51 0.286-1.055 0.629zM19.253 9.736c0.277 0.176 0.98 0.611 1.56 0.967s1.073 0.668 1.095 0.686c0.026 0.022-0.119 0.207-0.352 0.444-0.215 0.224-0.404 0.413-0.418 0.422-0.026 0.009-0.294-0.29-1.468-1.64-0.145-0.171-0.462-0.532-0.703-0.809-0.475-0.545-0.47-0.545 0.286-0.070zM17.903 9.503c-0.136 0.149-1.218 1.393-1.618 1.859-0.119 0.141-0.29 0.338-0.378 0.435-0.088 0.101-0.215 0.246-0.286 0.325l-0.127 0.145-0.413-0.4c-0.396-0.391-0.409-0.409-0.33-0.484 0.048-0.040 0.668-0.435 1.38-0.879 0.712-0.44 1.415-0.879 1.56-0.971 0.325-0.207 0.387-0.215 0.211-0.031zM18.198 12.273l-0.004 2.738-1.275-1.288-1.275-1.284 0.237-0.277c1.547-1.785 2.281-2.624 2.299-2.624 0.009 0 0.018 1.231 0.018 2.734zM19.345 10.571c0.418 0.484 0.945 1.090 1.174 1.349 0.224 0.259 0.409 0.484 0.409 0.505-0.004 0.018-0.567 0.602-1.257 1.292l-1.253 1.253v-2.725c0-2.651 0.004-2.725 0.079-2.642 0.048 0.048 0.426 0.484 0.848 0.967zM21.609 14.044l-0.418 2.242v-1.89l-0.004-1.89 0.409-0.409c0.22-0.224 0.409-0.382 0.413-0.352 0.009 0.031-0.176 1.064-0.4 2.299zM15.090 12.176l0.338 0.356-0.004 1.767c0 0.971-0.013 1.745-0.022 1.714-0.013-0.031-0.198-1.002-0.409-2.163-0.316-1.741-0.369-2.101-0.312-2.070 0.040 0.022 0.224 0.198 0.409 0.396zM20.967 16.69v3.947l-2.549-2.549v-2.804l1.262-1.266c0.695-0.699 1.27-1.27 1.275-1.27 0.009 0 0.013 1.776 0.013 3.943zM18.198 16.686v1.367l-1.275 1.292-1.27 1.292-0.004-3.934v-3.934l2.549 2.549v1.367zM21.626 19.407c0.22 1.182 0.409 2.193 0.422 2.242s-0.171-0.11-0.418-0.352l-0.444-0.44 0.004-1.846c0-1.015 0.009-1.829 0.018-1.802 0.009 0.022 0.198 1.011 0.418 2.198zM15.024 21.262c-0.224 0.224-0.409 0.4-0.418 0.391s0.738-4.057 0.787-4.268c0.009-0.026 0.018 0.747 0.022 1.714l0.013 1.754-0.404 0.409zM18.198 21.125c0 1.666-0.018 2.699-0.040 2.69-0.026-0.009-0.598-0.655-1.275-1.442l-1.231-1.429 1.262-1.266c0.695-0.695 1.266-1.262 1.27-1.262 0.009 0 0.013 1.218 0.013 2.708zM20.923 20.936c0 0.031-1.099 1.332-1.868 2.207-0.167 0.193-0.382 0.44-0.475 0.545l-0.163 0.198v-5.49l1.253 1.253c0.69 0.69 1.253 1.27 1.253 1.288zM16.769 22.576c0.58 0.673 1.116 1.297 1.196 1.38 0.207 0.22 0.18 0.246-0.084 0.075-0.782-0.497-2.738-1.736-3.042-1.925l-0.215-0.136 0.435-0.435 0.435-0.44 0.11 0.127c0.062 0.070 0.585 0.677 1.165 1.354zM21.552 21.534l0.426 0.431-0.448 0.286c-0.251 0.158-1.033 0.655-1.745 1.108-0.708 0.453-1.297 0.813-1.301 0.809-0.013-0.013 2.607-3.068 2.629-3.068 0.009 0 0.207 0.193 0.44 0.435z"></path>
</symbol>

<symbol id="form-email" viewBox="0 0 32 32"><path d="M26.667 5.333H5.334A2.662 2.662 0 0 0 2.682 8l-.014 16c0 1.467 1.2 2.667 2.667 2.667h21.333c1.467 0 2.667-1.2 2.667-2.667V8c0-1.467-1.2-2.667-2.667-2.667zm-.534 5.668-9.426 5.892a1.343 1.343 0 0 1-1.421-.004l.006.003L5.866 11A1.133 1.133 0 1 1 7.07 9.083l-.004-.003 8.933 5.586 8.933-5.588a1.132 1.132 0 1 1 1.204 1.916l-.005.003z"/></symbol>
<symbol id="form-person" viewBox="0 0 32 32"><path d="M16 16a5.333 5.333 0 1 0 0-10.666A5.333 5.333 0 1 0 16 16zm0 2.667c-3.561 0-10.667 1.787-10.667 5.333v1.333c0 .732.599 1.333 1.333 1.333h18.667c.732 0 1.333-.601 1.333-1.333V24c0-3.547-7.108-5.333-10.667-5.333z"/></symbol>
<symbol id="form-phone" viewBox="0 0 32 32"><path d="m24.882 19.774-3.268-.373a2.552 2.552 0 0 0-2.11.732l-2.368 2.368c-3.669-1.894-6.585-4.81-8.427-8.372l-.051-.108 2.382-2.377a2.552 2.552 0 0 0 .731-2.122l.001.012-.373-3.243a2.578 2.578 0 0 0-2.557-2.276H6.613c-1.454 0-2.663 1.209-2.574 2.661.683 10.987 9.47 19.762 20.444 20.444 1.452.089 2.663-1.12 2.663-2.574v-2.238a2.549 2.549 0 0 0-2.253-2.532l-.012-.001z"/></symbol>
<symbol id="password" viewBox="0 0 32 32">
<path d="M22 0c-5.523 0-10 4.477-10 10 0 0.626 0.058 1.238 0.168 1.832l-12.168 12.168v6c0 1.105 0.895 2 2 2h2v-2h4v-4h4v-4h4l2.595-2.595c1.063 0.385 2.209 0.595 3.405 0.595 5.523 0 10-4.477 10-10s-4.477-10-10-10zM24.996 10.004c-1.657 0-3-1.343-3-3s1.343-3 3-3 3 1.343 3 3-1.343 3-3 3z"></path>
</symbol> 
<symbol id="password-confirm" viewBox="0 0 32 32">
<path d="M31.317 9.82l-3.16-3.159c-0.775-0.775-2.043-2.043-2.818-2.818l-3.16-3.159c-0.775-0.775-2.155-0.911-3.067-0.304l-8.639 5.759c-0.912 0.608-1.257 1.907-0.767 2.887l2.203 4.405c0.067 0.135 0.145 0.278 0.231 0.427l-11.142 11.142-1 7h6v-2h4v-4h4v-4h4v-2.225c0.2 0.119 0.392 0.226 0.569 0.314l4.405 2.203c0.98 0.49 2.279 0.145 2.887-0.767l5.759-8.639c0.608-0.912 0.471-2.292-0.304-3.066zM4.707 26.707l-1.414-1.414 9.737-9.737 1.414 1.414-9.737 9.737zM28.657 13.243l-1.414 1.414c-0.389 0.389-1.025 0.389-1.414 0l-8.485-8.485c-0.389-0.389-0.389-1.025 0-1.414l1.414-1.414c0.389-0.389 1.025-0.389 1.414 0l8.485 8.485c0.389 0.389 0.389 1.025 0 1.414z"></path>
</symbol>

<!-- Видимость пароля -->
<symbol id="icon-eye-close" viewBox="0 0 36 32">
<path d="M17.386 1.841c-0.766 1.341-1.407 2.449-3.143 5.471-1.164 2.012-2.173 3.78-3.357 5.831-0.504 0.884-1.241 2.148-1.62 2.818-0.388 0.671-1.213 2.109-1.843 3.207s-1.174 2.031-1.213 2.089c-0.039 0.049-0.194 0.311-0.34 0.583-0.146 0.262-0.679 1.205-1.194 2.090-0.504 0.884-1.164 2.021-1.455 2.527s-0.863 1.487-1.261 2.186c-1.241 2.138-1.474 2.566-1.474 2.672 0 0.068 5.627 0.098 17.755 0.098 12.312 0 17.755-0.029 17.755-0.098 0-0.097-0.67-1.282-2.989-5.296-0.398-0.699-1.222-2.118-1.814-3.158-1.407-2.439-2.969-5.16-4.172-7.24-1.543-2.673-2.348-4.081-3.299-5.733-0.495-0.855-1.494-2.604-2.232-3.887-0.747-1.283-1.746-3.032-2.241-3.887-0.495-0.845-0.931-1.565-0.99-1.584-0.049-0.010-0.446 0.574-0.873 1.312zM18.997 2.764c0.378 0.661 0.892 1.564 1.154 2.021-6.084-11.347-5.051-9.585-4.021-7.821l7.136 13.215c0.398 0.69 1.193 2.070 1.766 3.061 2.169 3.953 2.957 5.302 3.75 6.648l-1.373-2.518c0.737 1.282 1.669 2.896 2.067 3.595 0.873 1.506 2.309 4.004 4.133 7.191 0.737 1.283 1.377 2.371 1.426 2.42 0.33 0.359 0.602 0.35-16.794 0.35s-17.124 0.010-16.794-0.35c0.048-0.049 0.659-1.098 1.368-2.323 0.708-1.234 1.785-3.109 2.406-4.178 2.807-5.158 3.409-6.19 4.012-7.22l-2.198 4.062c0.698-1.215 1.514-2.634 2.93-5.083 0.408-0.7 1.145-1.982 1.63-2.837 1.086-1.895 2.949-5.141 4.735-8.212 0.262-0.457 0.776-1.36 1.154-2.021 0.369-0.651 0.709-1.185 0.757-1.185s0.388 0.535 0.757 1.185z"></path>
<path d="M17.9 2.959c-0.155 0.282-0.446 0.797-0.66 1.147-0.139 0.211-0.403 0.656-0.66 1.104l-0.135 0.256c-0.86 1.579-1.246 2.246-1.636 2.911l0.472-0.869c-0.417 0.719-1.077 1.856-1.455 2.527-0.388 0.671-1.028 1.788-1.436 2.497-0.407 0.7-0.825 1.429-0.922 1.604-0.107 0.175-0.679 1.176-1.28 2.215s-1.174 2.021-1.261 2.186c-0.34 0.593-3.008 5.229-4.783 8.309-0.698 1.205-1.368 2.381-1.504 2.624s-0.281 0.486-0.32 0.544c-0.049 0.059-0.058 0.136-0.020 0.165 0.078 0.087 31.794 0.087 31.882 0.010 0.029-0.029-0.048-0.233-0.184-0.437-0.126-0.204-0.233-0.398-0.233-0.427s-0.107-0.214-0.223-0.418c-0.126-0.195-0.737-1.234-1.348-2.303s-1.543-2.692-2.067-3.595c-4.573-8.417-5.129-9.37-5.687-10.322l4.008 7.406c-1.441-2.615-2.036-3.631-2.636-4.644l0.842 1.534c-0.582-1.020-1.552-2.701-2.154-3.741-1.834-3.197-2.513-4.373-3.299-5.733-0.417-0.719-0.951-1.652-1.183-2.070s-0.524-0.923-0.65-1.118c-0.116-0.194-0.368-0.622-0.543-0.943-0.437-0.787-0.524-0.923-0.592-0.923-0.029 0-0.184 0.233-0.33 0.505zM19.143 4.465c0.776 1.37 1.785 3.11 3.9 6.783-0.902-1.756-0.226-0.597 0.445 0.564l1.592 2.983c0.601 1.040 1.572 2.721 2.154 3.741 1.252 2.167 2.096 3.635 3.668 6.366 2.884 5.265 3.549 6.401 4.217 7.536l-2.209-4.057c0.466 0.817 0.854 1.506 0.854 1.536 0 0.019-6.986 0.039-15.523 0.039s-15.523-0.020-15.523-0.039c0-0.019 0.398-0.729 0.883-1.574 0.495-0.855 0.98-1.701 1.087-1.885s0.601-1.059 1.116-1.944c0.504-0.884 1.154-2.002 1.426-2.478 0.961-1.662 3.086-5.355 4.172-7.24 0.592-1.040 1.514-2.643 2.037-3.547 1.261-2.196 2.892-5.014 3.9-6.783 0.447-0.787 0.854-1.429 0.903-1.429s0.446 0.641 0.903 1.429zM14.311 5.515c-0.825 0.204-1.999 0.641-2.911 1.098-4.57 2.274-7.616 6.355-8.538 11.486-0.194 1.079-0.223 3.771-0.058 4.762 0.233 1.351 0.524 2.43 0.67 2.43 0.107 0 0.116-0.068 0.068-0.272-0.466-1.808-0.563-2.527-0.573-4.296-0.010-2.225 0.194-3.401 0.942-5.442 1.678-4.616 5.724-8.28 10.527-9.524 0.243-0.058 0.407-0.165 0.407-0.243s-0.010-0.146-0.019-0.136c-0.020 0.010-0.243 0.068-0.514 0.136zM21.636 5.505c0 0.098 0.146 0.185 0.417 0.253 5.277 1.37 9.537 5.598 10.963 10.884 0.398 1.448 0.495 2.284 0.495 4.033-0.010 1.71-0.194 3.217-0.524 4.072-0.136 0.36-0.126 0.544 0.029 0.544 0.126 0 0.437-1.137 0.659-2.429 0.165-0.991 0.136-3.683-0.058-4.762-0.922-5.121-3.959-9.203-8.567-11.516-0.814-0.398-2.076-0.884-2.687-1.020-0.223-0.048-0.476-0.117-0.563-0.156-0.116-0.039-0.165-0.010-0.165 0.097z"></path>
<path d="M14.233 6.214c-0.038 0.029-0.068 0.126-0.068 0.204 0 0.117 0.029 0.117 0.146 0.020 0.078-0.068 0.146-0.156 0.146-0.204 0-0.107-0.136-0.117-0.223-0.020zM22.024 6.214c0 0.039 0.068 0.165 0.146 0.262 0.165 0.224 0.33 0.126 0.184-0.107-0.117-0.184-0.33-0.282-0.33-0.156zM12.991 6.691c-0.165 0.204 0 0.476 0.301 0.476s0.466-0.272 0.301-0.476c-0.077-0.088-0.204-0.156-0.301-0.156s-0.223 0.068-0.301 0.156zM22.936 6.787c-0.078 0.301 0.058 0.457 0.359 0.408 0.155-0.020 0.243-0.107 0.262-0.263 0.068-0.428-0.514-0.564-0.621-0.146zM11.827 7.176c-0.165 0.204 0 0.476 0.301 0.476s0.466-0.272 0.301-0.476c-0.077-0.087-0.204-0.156-0.301-0.156s-0.223 0.068-0.301 0.156zM24.177 7.137c-0.174 0.175-0.135 0.447 0.087 0.564 0.262 0.146 0.495-0.049 0.456-0.379-0.029-0.282-0.34-0.389-0.544-0.185zM13.195 7.681c-2.251 1.040-3.289 1.74-4.706 3.168-1.203 1.215-1.843 2.099-2.552 3.508-1.028 2.079-1.465 3.926-1.474 6.259 0 1.176 0.155 2.439 0.301 2.439 0.126 0 0.146-0.214 0.078-0.671-0.136-0.787-0.097-3.119 0.058-4.023 0.476-2.672 1.698-5.141 3.493-7.045 1.261-1.341 2.678-2.342 4.56-3.246 0.369-0.175 0.689-0.379 0.709-0.447 0.049-0.156-0.049-0.146-0.466 0.058zM22.819 7.623c0.020 0.068 0.34 0.272 0.709 0.447 4.279 2.041 6.976 5.345 7.956 9.738 0.194 0.865 0.301 3.673 0.175 4.47-0.087 0.554-0.078 0.778 0.058 0.778 0.146 0 0.301-1.263 0.301-2.439 0-2.964-0.873-5.705-2.6-8.153-0.601-0.865-2.435-2.663-3.318-3.265-1.174-0.806-3.366-1.856-3.28-1.574zM10.711 7.74c-0.106 0.272 0.010 0.495 0.243 0.495 0.271 0 0.456-0.243 0.368-0.476-0.077-0.195-0.543-0.204-0.611-0.019zM25.293 7.672c-0.135 0.126-0.068 0.515 0.107 0.602 0.359 0.195 0.679-0.262 0.388-0.554-0.126-0.126-0.398-0.156-0.495-0.049zM9.615 8.459c-0.136 0.262 0.078 0.534 0.388 0.486 0.184-0.019 0.233-0.087 0.233-0.32 0-0.243-0.039-0.302-0.262-0.321-0.175-0.020-0.291 0.029-0.359 0.156zM26.351 8.43c-0.213 0.214-0.039 0.535 0.291 0.535 0.272 0 0.408-0.243 0.262-0.476-0.136-0.214-0.369-0.243-0.553-0.058zM8.674 9.169c-0.204 0.233-0.097 0.505 0.233 0.554 0.31 0.049 0.475-0.331 0.252-0.574-0.214-0.233-0.262-0.233-0.485 0.020zM27.379 9.178c-0.291 0.292 0.029 0.748 0.388 0.554 0.214-0.117 0.233-0.535 0.020-0.612s-0.272-0.077-0.408 0.059z"></path>
<path d="M11.982 9.557c-2.989 1.749-5.026 4.402-5.957 7.745-0.262 0.943-0.417 2.332-0.379 3.324l0.029 0.826 0.476-0.826c0.262-0.457 0.786-1.351 1.155-1.992s0.902-1.565 1.174-2.041c0.281-0.486 0.864-1.487 1.29-2.235 0.437-0.748 1.271-2.206 1.873-3.246 0.592-1.030 1.067-1.895 1.048-1.915s-0.34 0.146-0.709 0.36zM23.77 9.197c0 0.029 0.485 0.904 1.077 1.934 0.592 1.020 1.416 2.459 1.834 3.178 1.28 2.235 3.202 5.549 3.677 6.365l0.446 0.778 0.029-0.943c0.068-2.332-0.718-4.946-2.154-7.104-0.718-1.078-2.134-2.507-3.221-3.246-0.709-0.486-1.688-1.040-1.688-0.962zM7.829 9.946c-0.213 0.126-0.213 0.563-0.010 0.641 0.378 0.146 0.708-0.447 0.359-0.632-0.117-0.068-0.243-0.068-0.35-0.010zM28.233 10.13c-0.087 0.156-0.078 0.243 0.010 0.35 0.155 0.184 0.563 0.175 0.64-0.020 0.156-0.398-0.446-0.71-0.65-0.331zM6.908 10.898c-0.077 0.039-0.116 0.184-0.097 0.311 0.020 0.184 0.087 0.233 0.32 0.233 0.32 0 0.437-0.243 0.243-0.486-0.136-0.165-0.282-0.184-0.466-0.058zM29.097 11.064c-0.165 0.204 0 0.476 0.301 0.476s0.466-0.272 0.301-0.476c-0.077-0.088-0.204-0.156-0.301-0.156s-0.223 0.068-0.301 0.156zM6.112 11.928c-0.252 0.301 0.126 0.797 0.427 0.544 0.185-0.156 0.204-0.408 0.039-0.573-0.156-0.155-0.32-0.146-0.466 0.029zM29.902 11.996c-0.165 0.165-0.146 0.311 0.068 0.505 0.31 0.281 0.698-0.049 0.495-0.438-0.116-0.204-0.388-0.243-0.563-0.068zM5.452 12.968c-0.184 0.184-0.135 0.544 0.078 0.612 0.417 0.136 0.67-0.428 0.301-0.632-0.233-0.126-0.233-0.126-0.378 0.020zM30.571 13.085c-0.068 0.078-0.097 0.233-0.058 0.34 0.087 0.281 0.349 0.34 0.573 0.107 0.155-0.155 0.174-0.233 0.097-0.369-0.136-0.214-0.466-0.263-0.611-0.078zM4.773 14.183c-0.135 0.253 0.029 0.515 0.33 0.515 0.136 0 0.262-0.068 0.301-0.156 0.146-0.379-0.446-0.709-0.631-0.359zM31.134 14.27c-0.165 0.204 0 0.476 0.301 0.476s0.466-0.272 0.301-0.476c-0.077-0.087-0.204-0.156-0.301-0.156s-0.223 0.068-0.301 0.156zM4.308 15.437c-0.087 0.35 0.146 0.583 0.437 0.437 0.223-0.126 0.271-0.388 0.087-0.573-0.204-0.204-0.456-0.136-0.524 0.136zM31.619 15.437c-0.165 0.204 0 0.476 0.301 0.476s0.466-0.272 0.301-0.476c-0.077-0.087-0.204-0.156-0.301-0.156s-0.223 0.068-0.301 0.156zM3.89 16.622c-0.126 0.243 0.049 0.505 0.33 0.505 0.175 0 0.252-0.068 0.301-0.233 0.029-0.136 0.029-0.292-0.010-0.34-0.097-0.165-0.514-0.126-0.621 0.068zM32.075 16.602c-0.088 0.078-0.155 0.185-0.155 0.233 0 0.107 0.281 0.389 0.388 0.389s0.388-0.282 0.388-0.389c0-0.107-0.282-0.389-0.388-0.389-0.048 0-0.155 0.068-0.233 0.155zM3.706 17.73c-0.184 0.185-0.135 0.544 0.078 0.612 0.417 0.136 0.67-0.427 0.301-0.632-0.233-0.126-0.233-0.126-0.378 0.019zM32.327 17.827c-0.174 0.175-0.135 0.447 0.087 0.564 0.252 0.136 0.476-0.029 0.476-0.34s-0.34-0.447-0.563-0.224zM3.551 19.003c-0.204 0.156-0.174 0.438 0.058 0.593 0.136 0.077 0.214 0.058 0.388-0.107 0.204-0.214 0.204-0.223 0.029-0.418-0.204-0.233-0.243-0.233-0.476-0.068zM32.541 19.052c-0.359 0.243-0.087 0.748 0.33 0.593 0.232-0.087 0.281-0.369 0.097-0.554-0.136-0.136-0.272-0.146-0.427-0.039zM3.454 20.295c-0.185 0.175-0.185 0.195-0.058 0.438 0.116 0.204 0.388 0.243 0.563 0.068s0.135-0.447-0.068-0.563c-0.243-0.126-0.262-0.126-0.437 0.058zM32.502 20.383c-0.146 0.175-0.097 0.438 0.116 0.574 0.136 0.078 0.214 0.058 0.379-0.097 0.165-0.175 0.184-0.243 0.097-0.418-0.126-0.233-0.417-0.272-0.592-0.059zM3.571 21.51c-0.34 0.195-0.107 0.729 0.281 0.651 0.214-0.039 0.282-0.418 0.126-0.622-0.136-0.156-0.184-0.165-0.407-0.029zM32.463 21.656c-0.204 0.194-0.194 0.262 0.029 0.466 0.146 0.136 0.233 0.146 0.388 0.058 0.252-0.136 0.262-0.447 0.019-0.583-0.243-0.126-0.262-0.126-0.437 0.059zM3.59 22.948c-0.116 0.224 0.116 0.525 0.369 0.477 0.204-0.039 0.349-0.311 0.281-0.505-0.087-0.214-0.523-0.195-0.65 0.029zM32.327 22.881c-0.291 0.291 0.107 0.826 0.427 0.554 0.243-0.204 0.107-0.67-0.204-0.67-0.058 0-0.155 0.049-0.223 0.117zM3.939 24.076c-0.174 0.175-0.204 0.34-0.058 0.34 0.107 0 0.33-0.379 0.262-0.447-0.029-0.029-0.116 0.019-0.204 0.107zM32.308 24.105c0 0.049 0.087 0.165 0.194 0.262 0.223 0.204 0.262 0.039 0.039-0.184-0.165-0.175-0.233-0.195-0.233-0.078z"></path>
</symbol>
<symbol id="icon-eye-open" viewBox="0 0 36 32">
<path d="M17.385 1.825c-0.765 1.343-1.405 2.452-3.143 5.478-1.165 2.015-2.172 3.785-3.357 5.838-0.502 0.885-1.24 2.15-1.62 2.82-0.387 0.672-1.213 2.113-1.843 3.212-0.63 1.098-1.175 2.032-1.212 2.090-0.040 0.050-0.195 0.313-0.34 0.585-0.145 0.262-0.68 1.205-1.195 2.090-0.502 0.885-1.163 2.025-1.455 2.53-0.29 0.505-0.862 1.488-1.26 2.19-1.242 2.14-1.475 2.567-1.475 2.675 0 0.067 5.628 0.098 17.755 0.098 12.313 0 17.755-0.030 17.755-0.098 0-0.098-0.67-1.285-2.987-5.303-0.4-0.7-1.223-2.12-1.815-3.163-1.407-2.44-2.97-5.165-4.172-7.247-1.543-2.675-2.348-4.085-3.297-5.74-0.495-0.855-1.495-2.605-2.232-3.89-0.747-1.285-1.745-3.035-2.24-3.893-0.495-0.845-0.933-1.565-0.99-1.585-0.050-0.010-0.448 0.575-0.875 1.313zM18.997 2.75c0.378 0.663 0.892 1.565 1.152 2.022 1.043 1.8 2.080 3.6 3.115 5.4 0.398 0.69 1.195 2.072 1.767 3.065 0.785 1.383 1.578 2.76 2.375 4.135 0.738 1.282 1.67 2.898 2.067 3.598 0.872 1.51 2.31 4.010 4.133 7.2 0.737 1.285 1.377 2.375 1.428 2.422 0.33 0.36 0.6 0.35-16.795 0.35s-17.125 0.010-16.795-0.35c0.050-0.047 0.66-1.1 1.367-2.325 0.71-1.235 1.787-3.113 2.408-4.183 0.603-1.055 1.207-2.11 1.815-3.163 0.697-1.215 1.512-2.637 2.93-5.088 0.408-0.7 1.145-1.985 1.63-2.84 1.085-1.897 2.947-5.147 4.735-8.223 0.26-0.457 0.775-1.36 1.152-2.022 0.37-0.652 0.71-1.188 0.758-1.188s0.387 0.535 0.758 1.188z"></path>
<path d="M17.9 2.945c-0.155 0.283-0.445 0.797-0.66 1.147-0.273 0.45-0.538 0.905-0.795 1.362-0.383 0.683-0.773 1.365-1.165 2.042-0.418 0.72-1.075 1.857-1.455 2.53-0.387 0.67-1.027 1.79-1.435 2.5-0.408 0.7-0.825 1.43-0.922 1.605-0.107 0.175-0.68 1.178-1.28 2.217-0.603 1.040-1.175 2.023-1.262 2.19-0.338 0.593-3.008 5.233-4.782 8.318-0.697 1.205-1.367 2.383-1.505 2.625-0.135 0.245-0.28 0.488-0.317 0.545-0.050 0.060-0.060 0.137-0.020 0.165 0.078 0.087 31.793 0.087 31.88 0.010 0.030-0.027-0.047-0.233-0.182-0.438-0.127-0.205-0.235-0.398-0.235-0.427s-0.105-0.215-0.222-0.418c-0.125-0.195-0.737-1.235-1.347-2.308-0.613-1.070-1.543-2.695-2.067-3.598-0.558-0.975-1.117-1.948-1.677-2.92-0.595-1.040-1.192-2.078-1.795-3.113-0.78-1.365-1.563-2.725-2.348-4.085-1.845-3.21-2.66-4.633-3.3-5.74-0.31-0.535-0.758-1.313-0.99-1.732-0.233-0.418-0.523-0.925-0.65-1.117-0.115-0.195-0.367-0.625-0.543-0.945-0.438-0.788-0.525-0.922-0.593-0.922-0.030 0-0.185 0.232-0.33 0.505zM19.142 4.452c0.775 1.372 1.785 3.112 3.9 6.79 0.683 1.183 1.363 2.365 2.038 3.55 0.602 1.043 1.573 2.725 2.152 3.747 1.253 2.168 2.098 3.637 3.67 6.372 0.665 1.16 1.335 2.323 2.008 3.48 0.465 0.817 0.852 1.51 0.852 1.538 0 0.020-6.985 0.040-15.523 0.040s-15.523-0.020-15.523-0.040c0-0.017 0.397-0.727 0.882-1.575 0.495-0.855 0.98-1.703 1.087-1.887 0.105-0.185 0.6-1.060 1.115-1.945 0.505-0.885 1.152-2.005 1.425-2.48 0.96-1.665 3.085-5.363 4.173-7.25 0.592-1.040 1.512-2.645 2.037-3.55 1.26-2.197 2.893-5.020 3.9-6.79 0.448-0.788 0.855-1.43 0.902-1.43s0.448 0.643 0.902 1.43z"></path>
<path d="M17.648 5.183c-0.28 0.495-0.95 1.673-1.492 2.607-0.545 0.933-1.505 2.587-2.125 3.678-0.623 1.088-1.543 2.685-2.037 3.55-0.398 0.685-0.79 1.372-1.175 2.063-0.155 0.273-0.367 0.642-0.485 0.828-0.115 0.185-0.32 0.545-0.465 0.797-0.135 0.242-0.582 1.030-1 1.75-0.408 0.71-1.058 1.84-1.445 2.51-0.38 0.672-1.115 1.935-1.62 2.822-0.515 0.885-1.048 1.828-1.195 2.090-0.155 0.273-0.378 0.652-0.503 0.848-0.118 0.205-0.225 0.407-0.225 0.468 0 0.067 4.668 0.098 14.36 0.098 7.907 0 14.36-0.040 14.36-0.087 0-0.080-0.138-0.332-1.892-3.367-1.63-2.82-2.378-4.125-3.3-5.74-0.485-0.855-1.223-2.13-1.62-2.82-2.115-3.678-3.122-5.42-4.782-8.318-2.367-4.135-2.657-4.622-2.745-4.65-0.060-0.020-0.33 0.378-0.613 0.875zM18.492 5.338c0.105 0.195 0.602 1.060 1.087 1.907 0.495 0.855 0.892 1.605 0.892 1.673s0.058 0.165 0.125 0.205c0.185 0.107 0.65 0.992 0.65 1.215 0 0.098 0.040 0.165 0.087 0.137 0.047-0.040 0.203 0.145 0.34 0.387l0.253 0.457-0.33 0.69c-0.262 0.547-0.523 1.095-0.777 1.645-0.28 0.595-0.495 0.945-0.573 0.915-0.192-0.068-0.145-0.262 0.777-3.2 0.078-0.252 0.125-0.515 0.098-0.585-0.030-0.078-0.060-0.057-0.060 0.050-0.010 0.107-0.078 0.32-0.145 0.485-0.078 0.175-0.35 0.925-0.6 1.675-0.438 1.313-0.582 1.585-0.747 1.42-0.060-0.060 0.192-1.578 0.532-3.105 0.060-0.273 0.087-0.535 0.047-0.563-0.058-0.060-0.145 0.232-0.405 1.467-0.087 0.428-0.205 0.905-0.242 1.070-0.050 0.158-0.108 0.457-0.148 0.652-0.038 0.283-0.105 0.37-0.253 0.37-0.165 0-0.183-0.047-0.135-0.37 0.078-0.582 0.242-2.947 0.233-3.317-0.010-0.195-0.078 0.107-0.145 0.672-0.155 1.255-0.33 2.732-0.33 2.887 0 0.070-0.087 0.127-0.195 0.127-0.183 0-0.192-0.068-0.192-1.752 0-1.098-0.040-1.75-0.098-1.75s-0.098 0.652-0.098 1.75c0 1.685-0.010 1.752-0.192 1.752-0.108 0-0.195-0.057-0.195-0.127 0-0.185-0.185-1.75-0.34-2.887l-0.135-1.023 0.047 1.117c0.030 0.615 0.098 1.51 0.137 1.995 0.067 0.633 0.058 0.885-0.020 0.935-0.175 0.117-0.262 0.020-0.32-0.38-0.040-0.195-0.098-0.495-0.148-0.652-0.038-0.165-0.192-0.807-0.337-1.44-0.148-0.633-0.293-1.127-0.323-1.098-0.027 0.027 0 0.29 0.060 0.563 0.067 0.283 0.155 0.76 0.212 1.053 0.050 0.29 0.165 0.865 0.242 1.265 0.137 0.7 0.108 0.932-0.105 0.797-0.060-0.040-0.33-0.73-0.602-1.527-0.66-1.938-0.785-2.268-0.795-2.072 0 0.098 0.057 0.36 0.135 0.582 0.438 1.342 0.835 2.685 0.852 2.89 0.020 0.127-0.027 0.252-0.095 0.273-0.078 0.030-0.303-0.34-0.613-1.012-0.27-0.572-0.62-1.313-0.775-1.643l-0.283-0.595 0.252-0.457c0.137-0.242 0.293-0.428 0.34-0.387 0.047 0.027 0.088-0.040 0.088-0.137 0-0.223 0.465-1.107 0.65-1.215 0.068-0.040 0.125-0.137 0.125-0.205s0.398-0.818 0.892-1.673c0.485-0.848 0.983-1.712 1.087-1.907 0.117-0.205 0.223-0.37 0.253-0.37s0.135 0.165 0.253 0.37zM14.883 12.363c0.36 0.845 0.932 2.227 0.932 2.265 0 0.030-0.068 0.070-0.145 0.098-0.098 0.040-0.35-0.29-0.875-1.158-0.398-0.67-0.728-1.265-0.728-1.322s0.098-0.252 0.205-0.438l0.213-0.34 0.127 0.28c0.068 0.148 0.182 0.43 0.27 0.615zM22.207 11.838c0.117 0.182 0.205 0.377 0.205 0.428 0 0.047-0.32 0.613-0.7 1.255-0.475 0.787-0.765 1.178-0.872 1.178-0.098 0-0.175-0.050-0.175-0.098 0-0.060 0.242-0.662 0.545-1.342 0.3-0.682 0.59-1.352 0.65-1.51 0.067-0.145 0.125-0.262 0.125-0.262 0.010 0 0.108 0.158 0.223 0.352zM22.8 12.848c0.115 0.283 0.098 0.322-0.573 1.217-0.475 0.64-0.727 0.902-0.835 0.865-0.212-0.088-0.185-0.175 0.253-0.945 0.223-0.387 0.505-0.885 0.64-1.117 0.262-0.457 0.33-0.457 0.515-0.020zM14.175 12.818c0.078 0.158 0.35 0.662 0.61 1.14 0.37 0.67 0.447 0.875 0.34 0.932-0.175 0.117-0.29 0-0.98-0.943-0.553-0.777-0.572-0.828-0.465-1.1 0.145-0.36 0.32-0.37 0.495-0.030zM14.098 14.19c0.3 0.428 0.553 0.818 0.553 0.885 0 0.245-0.377 0.078-0.785-0.36-0.825-0.865-0.815-0.855-0.63-1.137 0.088-0.135 0.193-0.232 0.232-0.205 0.037 0.020 0.32 0.39 0.63 0.818zM23.245 13.578c0.157 0.232 0.148 0.252-0.445 0.925-0.563 0.633-0.97 0.865-0.97 0.555 0-0.127 1.115-1.723 1.212-1.723 0.020 0 0.115 0.107 0.203 0.242zM13.572 14.688c0.535 0.613 0.582 0.727 0.34 0.825-0.105 0.040-0.31-0.078-0.61-0.34-0.242-0.223-0.485-0.447-0.535-0.485-0.098-0.088 0.107-0.575 0.242-0.575 0.040 0 0.293 0.252 0.563 0.575zM23.663 14.328c0.117 0.195 0.098 0.242-0.358 0.68-0.465 0.447-0.892 0.613-0.892 0.34 0-0.125 0.94-1.235 1.047-1.235 0.038 0 0.125 0.098 0.203 0.215zM13.195 15.328c0.32 0.332 0.33 0.363 0.165 0.488-0.155 0.117-0.232 0.098-0.613-0.175-0.465-0.33-0.485-0.37-0.31-0.643 0.137-0.232 0.283-0.165 0.758 0.33zM20.617 15.135c1.398 0.475 2.483 1.118 3.705 2.197 0.942 0.848 2.262 2.375 2.262 2.648 0 0.35-2.29 2.655-3.3 3.315-0.825 0.545-1.815 1.023-2.668 1.285-0.845 0.262-3.91 0.262-4.755 0-0.852-0.262-1.842-0.74-2.658-1.275-1-0.66-3.31-2.968-3.31-3.308 0-0.212 0.99-1.44 1.835-2.265 1.553-1.527 3.095-2.385 5.2-2.88 0.108-0.030 0.805-0.030 1.552-0.020 1.165 0.030 1.465 0.078 2.135 0.303zM24.023 14.96c0.203 0.273 0.165 0.35-0.31 0.65-0.34 0.215-0.485 0.255-0.64 0.185-0.185-0.078-0.165-0.117 0.27-0.545 0.262-0.252 0.495-0.457 0.515-0.457s0.098 0.080 0.165 0.168zM12.613 15.768c0.31 0.252 0.33 0.29 0.185 0.437-0.145 0.145-0.185 0.145-0.505-0.010-0.387-0.185-0.418-0.242-0.262-0.535 0.137-0.245 0.175-0.235 0.582 0.107zM24.46 15.69c0.095 0.175 0.078 0.232-0.067 0.34-0.39 0.29-0.495 0.31-0.71 0.165l-0.212-0.155 0.367-0.283c0.448-0.332 0.475-0.342 0.622-0.068zM12.080 16.273c0.26 0.117 0.31 0.262 0.125 0.448-0.155 0.155-0.29 0.145-0.505-0.010-0.155-0.117-0.165-0.155-0.047-0.34 0.155-0.253 0.117-0.242 0.428-0.098zM24.797 16.32c0.175 0.245 0.168 0.273-0.095 0.4-0.195 0.087-0.282 0.078-0.457-0.067l-0.223-0.175 0.29-0.157c0.36-0.192 0.33-0.192 0.485 0zM11.69 16.942c0.080 0.117-0.223 0.477-0.405 0.477-0.158 0-0.168-0.135-0.030-0.398 0.115-0.205 0.34-0.245 0.435-0.080zM25.235 17.040c0.087 0.168 0.078 0.225-0.020 0.293-0.145 0.087-0.475-0.155-0.475-0.37 0-0.205 0.37-0.145 0.495 0.078zM11.158 17.595c0 0.050-0.088 0.165-0.195 0.262-0.213 0.195-0.252 0.137-0.095-0.155 0.105-0.185 0.29-0.253 0.29-0.108zM25.613 17.703c0.157 0.293 0.117 0.35-0.095 0.155-0.205-0.185-0.253-0.34-0.098-0.34 0.047 0 0.135 0.087 0.192 0.185zM9.547 20.6c-0.225 0.168-0.36 0.060-0.225-0.175 0.088-0.165 0.127-0.175 0.252-0.078 0.127 0.117 0.127 0.137-0.027 0.253zM27.165 20.445c0 0.050-0.067 0.087-0.145 0.087-0.145 0-0.192-0.115-0.087-0.223 0.078-0.078 0.233 0.010 0.233 0.135zM27.65 21.273c0.16 0.293 0.325 0.58 0.495 0.865 0.148 0.215 0.293 0.497 0.33 0.633 0.040 0.137 0.148 0.332 0.242 0.438 0.165 0.195 0.37 0.527 0.795 1.315 0.262 0.468 1.39 2.402 2.078 3.57 0.233 0.39 0.378 0.73 0.33 0.758-0.047 0.030-2.688 0.050-5.86 0.040l-5.762-0.010-0.060-0.35c-0.038-0.205-0.105-0.555-0.155-0.797-0.27-1.295-0.485-2.355-0.485-2.433 0-0.058 0.078-0.098 0.175-0.098 0.145 0 0.253 0.215 0.505 0.945 0.68 1.992 0.883 2.52 0.825 2.12-0.030-0.215-0.117-0.565-0.195-0.777-0.485-1.402-0.727-2.325-0.61-2.395 0.175-0.115 0.253-0.027 0.573 0.672 0.175 0.36 0.475 1.012 0.677 1.46 0.215 0.438 0.38 0.845 0.38 0.895 0 0.058 0.038 0.095 0.098 0.095 0.087 0 0.058-0.115-0.253-0.845-0.078-0.165-0.137-0.33-0.137-0.36s-0.105-0.282-0.233-0.565c-0.6-1.313-0.64-1.44-0.485-1.508 0.087-0.030 0.205 0.010 0.273 0.078 0.155 0.165 1.32 2.113 1.32 2.2 0 0.027 0.105 0.203 0.242 0.38 0.135 0.175 0.242 0.358 0.242 0.418 0 0.047 0.038 0.125 0.095 0.155 0.165 0.098-0.027-0.302-0.863-1.8-0.438-0.767-0.785-1.46-0.785-1.527s0.078-0.125 0.175-0.125c0.105 0 0.552 0.505 1.212 1.39 0.563 0.76 1.125 1.49 1.232 1.625 0.25 0.293 0.155 0.067-0.148-0.34-0.233-0.323-0.872-1.245-1.503-2.16-0.387-0.575-0.438-0.808-0.155-0.808 0.067 0 0.503 0.407 0.96 0.895 1.475 1.615 1.59 1.732 1.65 1.732 0.078 0-0.020-0.117-1.31-1.598-0.525-0.593-0.933-1.128-0.922-1.175 0.067-0.205 0.418-0.137 0.698 0.115 0.165 0.155 0.573 0.515 0.913 0.808s0.777 0.683 0.97 0.858c0.195 0.175 0.438 0.367 0.545 0.427 0.212 0.117 0.027-0.067-1.535-1.518-0.57-0.535-1.038-1.003-1.038-1.043 0-0.038 0.087-0.105 0.205-0.135 0.203-0.067 0.203-0.067 2.075 1.215 1.020 0.692 0.718 0.41-0.707-0.68-0.913-0.69-0.98-0.767-0.845-0.915 0.087-0.087 0.185-0.155 0.215-0.155 0.058 0 0.775 0.39 1.95 1.040 0.233 0.137 0.435 0.225 0.455 0.205s-0.438-0.323-1.017-0.663c-1.050-0.622-1.195-0.788-0.865-1.003 0.128-0.075 0.37-0.008 0.99 0.255 1.135 0.495 1.135 0.495 1.135 0.37 0-0.060-0.047-0.108-0.105-0.108-0.205 0-1.64-0.73-1.64-0.828 0-0.175 0.212-0.34 0.435-0.34 0.108 0 0.475 0.087 0.805 0.195 0.34 0.105 0.69 0.192 0.777 0.192 0.098-0.008-0.165-0.115-0.563-0.253-0.922-0.3-0.98-0.37-0.67-0.68 0.203-0.205 0.29-0.225 0.485-0.145 0.135 0.047 0.505 0.105 0.825 0.135 0.31 0.030 0.465 0.040 0.33 0.010-0.137-0.030-0.35-0.087-0.485-0.135-0.137-0.040-0.37-0.108-0.515-0.137l-0.273-0.067 0.205-0.282c0.203-0.282 0.593-0.407 0.872-0.282 0.078 0.040 0.253 0.282 0.387 0.535zM10.070 20.97c0.117 0.137 0.215 0.282 0.215 0.323 0 0.087-0.545 0.282-0.97 0.34-0.215 0.040-0.205 0.040 0.047 0.047 0.165 0.010 0.475-0.027 0.707-0.067 0.36-0.067 0.457-0.058 0.66 0.128 0.127 0.108 0.205 0.253 0.155 0.302-0.037 0.058-0.348 0.192-0.697 0.32-0.505 0.175-0.553 0.205-0.242 0.165 0.213-0.030 0.572-0.128 0.805-0.215 0.387-0.145 0.428-0.145 0.603 0.020 0.213 0.195 0.25 0.438 0.078 0.448-0.165 0-1.902 0.858-1.768 0.867 0.060 0 0.555-0.195 1.107-0.44 0.988-0.438 0.988-0.438 1.223-0.253l0.242 0.185-0.273 0.185c-0.155 0.108-0.65 0.418-1.115 0.7-0.475 0.282-0.855 0.525-0.855 0.555 0 0.050 0.875-0.418 1.845-0.973 0.495-0.282 0.697-0.313 0.863-0.117 0.098 0.117-0.047 0.273-0.835 0.858-0.523 0.387-1.037 0.797-1.145 0.895-0.193 0.185-0.182 0.185 0.117 0.010 0.165-0.098 0.66-0.44 1.095-0.75 1.060-0.76 1.098-0.777 1.32-0.622 0.165 0.125 0.117 0.195-0.688 0.953-0.485 0.457-1.030 0.965-1.213 1.13-0.185 0.175-0.293 0.31-0.242 0.31 0.057 0 0.232-0.117 0.387-0.273 0.31-0.273 1.727-1.518 1.998-1.74 0.165-0.137 0.475-0.080 0.475 0.087 0 0.047-0.523 0.69-1.162 1.42s-1.165 1.363-1.165 1.4c0 0.040 0.592-0.555 1.32-1.332 0.852-0.915 1.357-1.38 1.455-1.343 0.223 0.078 0.165 0.262-0.283 0.865-0.785 1.090-1.533 2.19-1.59 2.355-0.030 0.087 0.475-0.545 1.115-1.42 0.65-0.865 1.232-1.575 1.283-1.575 0.057 0 0.125 0.067 0.155 0.145 0.047 0.128-0.252 0.73-1.485 2.947-0.135 0.233-0.223 0.438-0.205 0.457 0.020 0.020 0.495-0.72 1.047-1.655 0.565-0.933 1.040-1.703 1.067-1.703 0.030 0 0.107 0.040 0.175 0.087 0.107 0.060-0.020 0.43-0.553 1.692-0.377 0.887-0.69 1.675-0.68 1.742 0 0.087 0.020 0.078 0.060-0.020 0.027-0.078 0.29-0.64 0.572-1.245 0.28-0.593 0.61-1.313 0.728-1.575 0.145-0.35 0.262-0.488 0.398-0.488 0.233 0 0.233 0.010-0.273 1.655-0.697 2.247-0.61 2.090-1.135 2.12-0.387 0.030-0.455 0-0.455-0.145-0.010-0.165-0.010-0.165-0.107-0.010-0.145 0.253-1.057 0.253-1.057 0-0.010-0.155-0.010-0.155-0.107 0-0.088 0.165-0.398 0.175-4.307 0.175-2.998 0-4.22-0.030-4.22-0.108 0-0.058 0.708-1.332 1.583-2.83 0.862-1.5 1.725-3.008 1.92-3.367 0.195-0.35 0.398-0.66 0.465-0.68 0.060-0.020 0.107-0.108 0.107-0.205 0-0.262 0.465-0.865 0.697-0.915 0.447-0.087 0.535-0.067 0.738 0.175zM16.977 25.32c0 0.175-0.485 2.793-0.59 3.21-0.087 0.36-0.108 0.37-0.525 0.37-0.242 0-0.435-0.040-0.435-0.078 0-0.050 0.155-0.517 0.348-1.050 0.195-0.527 0.457-1.285 0.582-1.675 0.128-0.387 0.253-0.75 0.282-0.797 0.087-0.135 0.337-0.117 0.337 0.020zM19.587 26.255c0.117 0.515 0.282 1.225 0.36 1.575 0.070 0.285 0.137 0.57 0.203 0.855 0.050 0.215 0.030 0.225-0.367 0.195l-0.427-0.030-0.067-0.485c-0.115-0.837-0.273-2.988-0.223-3.075 0.145-0.233 0.34 0.117 0.523 0.965zM17.62 25.465c-0.050 0.165-0.225 2.063-0.282 2.997l-0.020 0.387h-0.435c-0.33 0-0.427-0.027-0.407-0.145 0.017-0.078 0.067-0.313 0.115-0.535 0.050-0.215 0.155-0.672 0.242-1.023 0.078-0.35 0.195-0.875 0.253-1.168 0.128-0.65 0.145-0.68 0.387-0.68 0.148 0 0.185 0.047 0.148 0.165zM18.24 27.1v1.8h-0.795l0.047-0.613c0.078-0.837 0.242-2.288 0.31-2.675 0.040-0.225 0.108-0.313 0.242-0.313 0.185 0 0.195 0.078 0.195 1.8zM18.86 25.953c0.030 0.37 0.117 1.157 0.185 1.76s0.108 1.12 0.078 1.137c-0.078 0.087-0.68 0.050-0.727-0.038-0.027-0.050-0.027-0.858 0.010-1.8 0.047-1.518 0.078-1.712 0.223-1.712 0.137 0 0.175 0.128 0.233 0.652z"></path>
<path d="M17.095 9.345c0 0.137 0.020 0.185 0.047 0.117 0.020-0.057 0.020-0.175 0-0.242-0.027-0.060-0.047-0.010-0.047 0.125zM19.317 9.307c0 0.107 0.027 0.135 0.058 0.057 0.030-0.068 0.020-0.155-0.010-0.185-0.027-0.037-0.058 0.020-0.047 0.127zM16.223 10.318c0 0.185 0.020 0.262 0.047 0.168 0.020-0.088 0.020-0.245 0-0.342-0.027-0.088-0.047-0.008-0.047 0.175zM20.2 10.318c0 0.185 0.020 0.262 0.047 0.168 0.020-0.088 0.020-0.245 0-0.342-0.027-0.088-0.047-0.008-0.047 0.175zM16.64 15.66c-1.65 0.407-3.095 1.302-4.482 2.762-0.387 0.407-0.815 0.915-0.96 1.137l-0.262 0.39 0.28 0.36c1.582 2.090 4.463 3.54 7.025 3.54 2.58 0 5.433-1.44 7.063-3.59l0.242-0.31-0.262-0.39c-0.367-0.555-1.55-1.8-2.2-2.295-1.050-0.808-2.223-1.373-3.387-1.645-0.825-0.185-2.203-0.165-3.055 0.040zM19.122 16c1.525 0.35 2.727 1.733 2.863 3.27 0.155 1.622-0.66 3.113-2.078 3.813-0.61 0.3-0.707 0.32-1.668 0.32-0.98 0-1.058-0.020-1.688-0.33-2.28-1.168-2.795-4.203-1.020-6.023 0.98-1.003 2.242-1.37 3.59-1.050zM15.435 16.76c-1.647 1.652-1.647 4.172 0 5.825 0.322 0.323 0.555 0.575 0.525 0.575-0.135 0-1.33-0.497-1.748-0.73-0.647-0.37-1.543-1.060-2.152-1.683-0.728-0.73-0.758-0.817-0.447-1.207 0.535-0.66 1.553-1.663 2.183-2.13 0.602-0.448 1.845-1.148 2.058-1.157 0.050 0-0.135 0.235-0.418 0.505zM21.538 16.672c1.078 0.573 2.428 1.74 3.33 2.867 0.31 0.39 0.28 0.477-0.448 1.218-0.61 0.613-1.492 1.302-2.152 1.672-0.427 0.233-1.613 0.73-1.758 0.73-0.030 0 0.205-0.253 0.525-0.575 1.657-1.642 1.668-4.172 0.010-5.835-0.593-0.585-0.468-0.605 0.492-0.078z"></path>
<path d="M17.075 16.418c-1.348 0.468-2.29 1.84-2.27 3.29 0.030 2.188 2.135 3.843 4.22 3.317 1.367-0.35 2.367-1.44 2.62-2.843 0.273-1.545-0.747-3.258-2.24-3.775-0.552-0.192-1.758-0.185-2.33 0.010zM20.258 17.42c0.175 0.108 0.35 0.175 0.39 0.155 0.038-0.027 0.075 0.030 0.085 0.117 0 0.087 0.070 0.313 0.137 0.477 0.115 0.282 0.105 0.36-0.078 0.738-0.225 0.457-0.427 0.555-1.165 0.555-0.505 0-0.902-0.438-0.902-0.992 0-0.65 0.485-1.235 1.020-1.245 0.105 0 0.337 0.087 0.512 0.195zM17.628 17.477c-0.027 0.030-0.115 0.040-0.183 0.010-0.078-0.027-0.050-0.058 0.058-0.058 0.108-0.010 0.165 0.020 0.125 0.047zM17.795 20.552c0.155 0.253-0.040 0.515-0.39 0.515-0.223 0-0.29-0.047-0.31-0.223-0.067-0.457 0.457-0.672 0.7-0.293zM27.34 22.742c0.067 0.027 0.155 0.020 0.185-0.010 0.038-0.030-0.020-0.058-0.125-0.050-0.108 0-0.137 0.030-0.060 0.060zM9.197 22.742c0.057 0.020 0.175 0.020 0.242 0 0.057-0.030 0.010-0.050-0.125-0.050-0.137 0-0.185 0.020-0.117 0.050zM9.703 24.718c-0.088 0.058-0.098 0.095-0.030 0.095 0.060 0 0.145-0.047 0.175-0.095 0.078-0.117 0.040-0.117-0.145 0zM10.235 25.593c-0.027 0.058 0.010 0.067 0.088 0.038 0.175-0.067 0.205-0.135 0.068-0.135-0.057 0-0.125 0.040-0.155 0.098zM12.283 27.995c-0.057 0.135-0.047 0.145 0.050 0.058 0.068-0.067 0.095-0.145 0.068-0.175-0.030-0.027-0.088 0.020-0.117 0.117zM14.31 5.503c-0.825 0.205-1.998 0.643-2.91 1.1-4.57 2.277-7.615 6.362-8.537 11.5-0.195 1.080-0.225 3.773-0.058 4.765 0.232 1.352 0.522 2.433 0.667 2.433 0.107 0 0.118-0.067 0.070-0.273-0.468-1.81-0.565-2.53-0.575-4.3-0.007-2.227 0.195-3.405 0.942-5.447 1.678-4.62 5.725-8.287 10.527-9.535 0.242-0.058 0.408-0.165 0.408-0.242s-0.010-0.145-0.020-0.135c-0.020 0.010-0.242 0.067-0.515 0.135zM21.635 5.492c0 0.098 0.148 0.185 0.418 0.253 5.277 1.372 9.538 5.605 10.965 10.898 0.398 1.45 0.495 2.285 0.495 4.037-0.010 1.712-0.195 3.22-0.525 4.075-0.135 0.36-0.127 0.545 0.030 0.545 0.125 0 0.435-1.137 0.657-2.433 0.167-0.992 0.138-3.685-0.057-4.765-0.922-5.128-3.957-9.215-8.568-11.53-0.815-0.397-2.075-0.885-2.688-1.020-0.223-0.050-0.475-0.117-0.563-0.157-0.115-0.037-0.165-0.008-0.165 0.098z"></path>
<path d="M14.232 6.202c-0.037 0.030-0.068 0.128-0.068 0.205 0 0.117 0.030 0.117 0.145 0.020 0.078-0.067 0.145-0.155 0.145-0.205 0-0.107-0.135-0.115-0.223-0.020zM22.025 6.202c0 0.040 0.067 0.168 0.145 0.263 0.165 0.225 0.33 0.128 0.185-0.105-0.117-0.185-0.33-0.282-0.33-0.157zM12.992 6.68c-0.168 0.205 0 0.478 0.3 0.478s0.465-0.272 0.3-0.478c-0.078-0.088-0.203-0.155-0.3-0.155s-0.225 0.067-0.3 0.155zM22.935 6.777c-0.078 0.303 0.060 0.457 0.36 0.41 0.155-0.020 0.242-0.107 0.262-0.265 0.067-0.428-0.515-0.563-0.622-0.145zM11.828 7.168c-0.165 0.202 0 0.475 0.3 0.475s0.465-0.272 0.3-0.475c-0.078-0.088-0.203-0.157-0.3-0.157s-0.223 0.070-0.3 0.157zM24.177 7.128c-0.175 0.175-0.135 0.447 0.087 0.565 0.262 0.145 0.495-0.050 0.457-0.38-0.030-0.282-0.34-0.39-0.545-0.185zM13.195 7.673c-2.25 1.040-3.29 1.743-4.705 3.173-1.202 1.215-1.845 2.1-2.553 3.51-1.027 2.082-1.465 3.93-1.475 6.265 0 1.177 0.155 2.442 0.3 2.442 0.128 0 0.147-0.212 0.080-0.67-0.138-0.79-0.098-3.122 0.058-4.027 0.475-2.675 1.697-5.148 3.492-7.055 1.26-1.342 2.678-2.342 4.56-3.248 0.37-0.175 0.688-0.38 0.707-0.447 0.050-0.157-0.047-0.147-0.465 0.058zM22.82 7.615c0.020 0.067 0.337 0.272 0.707 0.447 4.277 2.043 6.975 5.35 7.955 9.748 0.195 0.865 0.302 3.678 0.175 4.475-0.087 0.555-0.078 0.777 0.060 0.777 0.145 0 0.3-1.265 0.3-2.442 0-2.968-0.872-5.71-2.6-8.16-0.602-0.867-2.435-2.668-3.32-3.27-1.172-0.807-3.365-1.857-3.277-1.575zM10.71 7.73c-0.105 0.273 0.010 0.498 0.245 0.498 0.27 0 0.455-0.242 0.367-0.478-0.078-0.195-0.543-0.205-0.61-0.020zM25.293 7.662c-0.135 0.128-0.067 0.515 0.108 0.603 0.36 0.195 0.68-0.262 0.387-0.553-0.125-0.128-0.398-0.157-0.495-0.050zM9.615 8.45c-0.135 0.262 0.078 0.535 0.387 0.488 0.185-0.020 0.232-0.088 0.232-0.32 0-0.245-0.037-0.303-0.26-0.322-0.175-0.020-0.293 0.030-0.36 0.155zM26.35 8.422c-0.212 0.213-0.038 0.535 0.293 0.535 0.27 0 0.407-0.245 0.262-0.477-0.137-0.215-0.37-0.242-0.555-0.057zM8.672 9.16c-0.203 0.235-0.095 0.508 0.235 0.555 0.31 0.050 0.475-0.33 0.252-0.572-0.215-0.235-0.262-0.235-0.485 0.018zM27.38 9.17c-0.293 0.293 0.027 0.75 0.387 0.555 0.212-0.117 0.233-0.535 0.020-0.613-0.215-0.078-0.273-0.078-0.407 0.057z"></path>
<path d="M11.982 9.55c-2.99 1.75-5.027 4.407-5.957 7.753-0.263 0.945-0.418 2.335-0.378 3.328l0.027 0.828 0.478-0.828c0.26-0.457 0.785-1.352 1.152-1.992 0.37-0.642 0.902-1.567 1.175-2.045 0.283-0.485 0.863-1.488 1.29-2.238 0.438-0.748 1.273-2.207 1.873-3.248 0.592-1.033 1.068-1.897 1.047-1.918s-0.34 0.148-0.707 0.36zM23.77 9.19c0 0.030 0.485 0.905 1.078 1.935 0.59 1.023 1.415 2.463 1.832 3.183 1.282 2.238 3.203 5.555 3.678 6.372l0.448 0.777 0.027-0.942c0.070-2.335-0.718-4.953-2.152-7.113-0.718-1.080-2.135-2.51-3.223-3.25-0.707-0.485-1.688-1.040-1.688-0.963zM7.83 9.94c-0.215 0.125-0.215 0.563-0.010 0.64 0.377 0.148 0.707-0.445 0.36-0.63-0.117-0.070-0.242-0.070-0.35-0.010zM28.233 10.125c-0.087 0.155-0.078 0.242 0.010 0.35 0.155 0.185 0.563 0.175 0.64-0.020 0.155-0.4-0.445-0.71-0.65-0.33zM6.907 10.893c-0.077 0.040-0.115 0.185-0.098 0.313 0.020 0.182 0.088 0.232 0.32 0.232 0.322 0 0.438-0.242 0.242-0.488-0.135-0.165-0.28-0.182-0.465-0.057zM29.098 11.057c-0.165 0.205 0 0.477 0.3 0.477s0.465-0.273 0.3-0.477c-0.078-0.088-0.203-0.155-0.3-0.155s-0.223 0.068-0.3 0.155zM6.112 11.922c-0.253 0.303 0.125 0.8 0.428 0.545 0.185-0.155 0.202-0.408 0.037-0.572-0.155-0.155-0.32-0.148-0.465 0.027zM29.902 11.992c-0.165 0.165-0.148 0.31 0.067 0.505 0.31 0.283 0.698-0.047 0.495-0.438-0.117-0.205-0.387-0.242-0.563-0.068zM5.452 12.965c-0.185 0.185-0.135 0.545 0.077 0.613 0.418 0.137 0.67-0.428 0.3-0.633-0.232-0.127-0.232-0.127-0.378 0.020zM30.573 13.082c-0.070 0.078-0.098 0.232-0.060 0.34 0.087 0.283 0.35 0.34 0.573 0.107 0.155-0.158 0.175-0.235 0.098-0.37-0.135-0.215-0.465-0.262-0.61-0.078zM4.772 14.18c-0.135 0.255 0.030 0.518 0.33 0.518 0.138 0 0.263-0.070 0.303-0.158 0.145-0.38-0.447-0.71-0.633-0.36zM31.135 14.268c-0.165 0.205 0 0.477 0.3 0.477s0.465-0.273 0.3-0.477c-0.078-0.088-0.203-0.155-0.3-0.155s-0.223 0.068-0.3 0.155zM4.308 15.435c-0.088 0.35 0.145 0.585 0.438 0.438 0.223-0.125 0.27-0.387 0.088-0.572-0.205-0.205-0.458-0.137-0.525 0.135zM31.62 15.435c-0.165 0.205 0 0.477 0.3 0.477s0.465-0.273 0.3-0.477c-0.078-0.088-0.203-0.155-0.3-0.155s-0.223 0.068-0.3 0.155zM3.89 16.622c-0.125 0.242 0.050 0.505 0.33 0.505 0.175 0 0.253-0.067 0.3-0.233 0.030-0.135 0.030-0.293-0.008-0.34-0.098-0.165-0.515-0.128-0.623 0.067zM32.075 16.602c-0.087 0.078-0.155 0.185-0.155 0.235 0 0.105 0.282 0.387 0.388 0.387 0.108 0 0.388-0.282 0.388-0.387 0-0.108-0.28-0.39-0.388-0.39-0.047 0-0.155 0.067-0.233 0.155zM3.705 17.733c-0.183 0.185-0.135 0.545 0.080 0.613 0.418 0.135 0.668-0.427 0.3-0.633-0.232-0.128-0.232-0.128-0.38 0.020zM32.328 17.828c-0.175 0.177-0.135 0.45 0.087 0.565 0.252 0.137 0.475-0.027 0.475-0.34s-0.34-0.448-0.563-0.225zM3.55 19.005c-0.203 0.157-0.172 0.44 0.060 0.595 0.135 0.078 0.212 0.058 0.388-0.108 0.205-0.215 0.205-0.223 0.030-0.418-0.205-0.235-0.243-0.235-0.478-0.070zM32.54 19.055c-0.358 0.242-0.087 0.747 0.33 0.593 0.233-0.087 0.282-0.37 0.097-0.552-0.135-0.137-0.273-0.148-0.428-0.040zM3.455 20.3c-0.185 0.175-0.185 0.195-0.060 0.438 0.118 0.205 0.39 0.242 0.563 0.067 0.175-0.175 0.137-0.448-0.067-0.563-0.243-0.128-0.263-0.128-0.435 0.058zM32.502 20.387c-0.145 0.175-0.097 0.438 0.115 0.575 0.138 0.078 0.215 0.058 0.38-0.098 0.165-0.175 0.185-0.245 0.097-0.42-0.127-0.233-0.417-0.273-0.593-0.058zM3.57 21.515c-0.34 0.195-0.107 0.73 0.283 0.652 0.213-0.038 0.28-0.418 0.125-0.622-0.135-0.155-0.185-0.165-0.407-0.030zM32.462 21.663c-0.203 0.195-0.193 0.262 0.030 0.468 0.145 0.135 0.233 0.145 0.388 0.058 0.252-0.137 0.263-0.448 0.020-0.585-0.242-0.125-0.263-0.125-0.438 0.060zM3.59 22.955c-0.118 0.225 0.115 0.527 0.368 0.477 0.205-0.040 0.35-0.313 0.283-0.505-0.088-0.215-0.525-0.195-0.65 0.027zM32.328 22.887c-0.292 0.293 0.108 0.828 0.428 0.555 0.242-0.205 0.105-0.672-0.205-0.672-0.057 0-0.155 0.050-0.222 0.117zM3.94 24.085c-0.175 0.175-0.205 0.34-0.060 0.34 0.107 0 0.33-0.38 0.263-0.448-0.027-0.030-0.115 0.020-0.203 0.108zM32.307 24.113c0 0.050 0.087 0.168 0.195 0.262 0.222 0.205 0.263 0.040 0.038-0.183-0.165-0.177-0.233-0.195-0.233-0.080z"></path>
</symbol>

<!-- Лицензия -->
<symbol id="cube" viewBox="0 0 34 32"><path d="M30.341 3.556v24.889h-26.548v-24.889h26.548zM30.341 0h-26.548c-2.086 0-3.793 1.6-3.793 3.556v24.889c0 1.956 1.707 3.556 3.793 3.556h26.548c2.086 0 3.793-1.6 3.793-3.556v-24.889c0-1.956-1.707-3.556-3.793-3.556z"></path></symbol>
<symbol id="icon_check" viewBox="0 0 34 32"><path fill="#2196f3" style="fill: var(--color1, #2196f3)" d="M4.267 0h25.6c2.356 0 4.267 1.91 4.267 4.267v23.467c0 2.356-1.91 4.267-4.267 4.267h-25.6c-2.356 0-4.267-1.91-4.267-4.267v-23.467c0-2.356 1.91-4.267 4.267-4.267z"></path><path fill="#fff" stroke="#fff" stroke-width="0.4267" stroke-miterlimit="4" stroke-linecap="butt" stroke-linejoin="miter" style="fill: var(--color2, #fff); stroke: var(--color2, #fff)" d="M8.442 16.538l-0.147-0.141-0.147 0.139-2.057 1.95 0.162 0.156 7.605 7.253 0.147-0.141 16.171-15.426-0.162-0.154-2.029-1.935-0.147 0.141-13.98 13.325-5.417-5.167z"></path></symbol>        

<!-- Навигация слайдера -->
<symbol id="icon-circle-right" viewBox="0 0 32 32">
<path d="M16 0c-8.837 0-16 7.163-16 16s7.163 16 16 16 16-7.163 16-16-7.163-16-16-16zM16 29c-7.18 0-13-5.82-13-13s5.82-13 13-13 13 5.82 13 13-5.82 13-13 13z"></path>
<path d="M11.086 22.086l2.829 2.829 8.914-8.914-8.914-8.914-2.828 2.828 6.086 6.086z"></path>
</symbol>
<symbol id="icon-circle-left" viewBox="0 0 32 32">
<path d="M16 32c8.837 0 16-7.163 16-16s-7.163-16-16-16-16 7.163-16 16 7.163 16 16 16zM16 3c7.18 0 13 5.82 13 13s-5.82 13-13 13-13-5.82-13-13 5.82-13 13-13z"></path>
<path d="M20.914 9.914l-2.829-2.829-8.914 8.914 8.914 8.914 2.828-2.828-6.086-6.086z"></path>
</symbol>
</defs>
</svg>
